<svg width="845.5625px" height="189.83002929687498px" xmlns="http://www.w3.org/2000/svg" viewBox="-172.78125 -19.91501464843749 845.5625 189.83002929687498" style="background: rgba(0, 0, 0, 0);" preserveAspectRatio="xMidYMid"><defs><filter id="editing-extrusion" x="-100%" y="-100%" width="300%" height="300%"><feFlood result="color1" flood-color="#ffffff"></feFlood><feConvolveMatrix order="8,8" divisor="1" kernelMatrix="1 0 0 0 0 0 0 0 0 1 0 0 0 0 0 0 0 0 1 0 0 0 0 0 0 0 0 1 0 0 0 0 0 0 0 0 1 0 0 0 0 0 0 0 0 1 0 0 0 0 0 0 0 0 1 0 0 0 0 0 0 0 0 1" in="SourceAlpha" result="extrude"></feConvolveMatrix><feComposite in="color1" in2="extrude" result="comp-extrude" operator="in"></feComposite><feOffset dx="4" dy="4" in="comp-extrude" result="offset-extrude"></feOffset><feMerge><feMergeNode in="offset-extrude"></feMergeNode><feMergeNode in="SourceGraphic"></feMergeNode></feMerge></filter></defs><g filter="url(#editing-extrusion)"><g transform="translate(-55.36999034881592, 111.13500213623047)"><path d="M4.88 0L4.88 0L4.88 0Q5.18-1.22 5.40-2.95L5.40-2.95L5.40-2.95Q5.62-4.69 5.62-6.54L5.62-6.54L5.62-6.54Q5.62-8.25 5.37-9.89L5.37-9.89L5.37-9.89Q5.13-11.52 4.88-12.70L4.88-12.70L4.88-12.70Q7.08-12.70 8.74-13.04L8.74-13.04L8.74-13.04Q10.40-13.38 11.52-14.18L11.52-14.18L11.52-14.18Q12.65-14.99 13.21-16.38L13.21-16.38L13.21-16.38Q13.77-17.77 13.77-19.87L13.77-19.87L13.77-19.87Q13.77-24.32 13.55-27.29L13.55-27.29L13.55-27.29Q13.33-30.27 12.92-32.10L12.92-32.10L12.92-32.10Q12.50-33.94 11.87-34.79L11.87-34.79L11.87-34.79Q11.23-35.64 10.40-35.89L10.40-35.89L10.40-35.89Q11.28-36.18 11.91-36.94L11.91-36.94L11.91-36.94Q12.55-37.70 12.96-39.40L12.96-39.40L12.96-39.40Q13.38-41.11 13.57-43.97L13.57-43.97L13.57-43.97Q13.77-46.83 13.77-51.32L13.77-51.32L13.77-51.32Q13.77-53.27 13.13-54.49L13.13-54.49L13.13-54.49Q12.50-55.71 11.43-56.42L11.43-56.42L11.43-56.42Q10.35-57.13 8.91-57.37L8.91-57.37L8.91-57.37Q7.47-57.62 5.81-57.62L5.81-57.62L4.88-57.62L4.88-57.62Q5.13-58.79 5.37-60.33L5.37-60.33L5.37-60.33Q5.62-61.87 5.62-63.57L5.62-63.57L5.62-63.57Q5.62-65.38 5.40-67.24L5.40-67.24L5.40-67.24Q5.18-69.09 4.88-70.31L4.88-70.31L4.88-70.31Q6.79-69.63 10.30-69.12L10.30-69.12L10.30-69.12Q13.82-68.60 19.43-68.60L19.43-68.60L19.43-68.60Q23.10-68.60 26.56-69.02L26.56-69.02L26.56-69.02Q30.03-69.43 32.96-69.97L32.96-69.97L32.96-69.97Q32.96-67.63 33.94-64.65L33.94-64.65L33.94-64.65Q34.91-61.67 36.57-58.40L36.57-58.40L36.57-58.40Q38.23-55.13 40.36-51.73L40.36-51.73L40.36-51.73Q42.48-48.34 44.80-45.17L44.80-45.17L44.80-45.17Q47.12-41.99 49.44-39.18L49.44-39.18L49.44-39.18Q51.76-36.38 53.78-34.30L53.78-34.30L53.78-34.30Q55.81-32.23 57.32-31.01L57.32-31.01L57.32-31.01Q58.84-29.79 59.57-29.79L59.57-29.79L59.67-29.79L59.67-29.79Q59.72-29.79 59.79-29.76L59.79-29.76L59.79-29.76Q59.86-29.74 59.96-29.74L59.96-29.74L59.96-29.74Q60.35-31.20 60.57-33.45L60.57-33.45L60.57-33.45Q60.79-35.69 60.91-38.53L60.91-38.53L60.91-38.53Q61.04-41.36 61.08-44.60L61.08-44.60L61.08-44.60Q61.13-47.85 61.13-51.32L61.13-51.32L61.13-51.32Q61.13-53.27 60.50-54.49L60.50-54.49L60.50-54.49Q59.86-55.71 58.79-56.42L58.79-56.42L58.79-56.42Q57.71-57.13 56.27-57.37L56.27-57.37L56.27-57.37Q54.83-57.62 53.17-57.62L53.17-57.62L52.25-57.62L52.25-57.62Q52.49-58.79 52.73-60.33L52.73-60.33L52.73-60.33Q52.98-61.87 52.98-63.57L52.98-63.57L52.98-63.57Q52.98-65.38 52.76-67.24L52.76-67.24L52.76-67.24Q52.54-69.09 52.25-70.31L52.25-70.31L52.25-70.31Q53.17-69.97 55.18-69.68L55.18-69.68L55.18-69.68Q57.18-69.38 59.77-69.14L59.77-69.14L59.77-69.14Q62.35-68.90 65.26-68.75L65.26-68.75L65.26-68.75Q68.16-68.60 70.95-68.60L70.95-68.60L70.95-68.60Q73.78-68.60 76.68-68.75L76.68-68.75L76.68-68.75Q79.59-68.90 82.15-69.14L82.15-69.14L82.15-69.14Q84.72-69.38 86.67-69.68L86.67-69.68L86.67-69.68Q88.62-69.97 89.60-70.31L89.60-70.31L89.60-70.31Q89.31-69.09 89.09-67.24L89.09-67.24L89.09-67.24Q88.87-65.38 88.87-63.57L88.87-63.57L88.87-63.57Q88.87-61.87 89.11-60.33L89.11-60.33L89.11-60.33Q89.36-58.79 89.60-57.62L89.60-57.62L88.57-57.62L88.57-57.62Q86.82-57.62 85.35-57.37L85.35-57.37L85.35-57.37Q83.89-57.13 82.86-56.42L82.86-56.42L82.86-56.42Q81.84-55.71 81.27-54.49L81.27-54.49L81.27-54.49Q80.71-53.27 80.71-51.32L80.71-51.32L80.71-51.32Q80.71-46.83 80.98-43.90L80.98-43.90L80.98-43.90Q81.25-40.97 81.76-39.21L81.76-39.21L81.76-39.21Q82.28-37.45 82.98-36.72L82.98-36.72L82.98-36.72Q83.69-35.99 84.57-35.89L84.57-35.89L84.57-35.89Q83.74-35.45 83.11-34.52L83.11-34.52L83.11-34.52Q82.47-33.59 82.06-31.59L82.06-31.59L82.06-31.59Q81.64-29.59 81.42-26.27L81.42-26.27L81.42-26.27Q81.20-22.95 81.20-17.72L81.20-17.72L81.20-17.72Q81.20-14.21 81.49-11.30L81.49-11.30L81.49-11.30Q81.79-8.40 82.20-6.18L82.20-6.18L82.20-6.18Q82.62-3.96 83.11-2.42L83.11-2.42L83.11-2.42Q83.59-0.88 83.98 0L83.98 0L83.98 0Q82.76-0.39 81.25-0.63L81.25-0.63L81.25-0.63Q79.74-0.88 78.17-1.00L78.17-1.00L78.17-1.00Q76.61-1.12 75.15-1.17L75.15-1.17L75.15-1.17Q73.68-1.22 72.61-1.22L72.61-1.22L72.61-1.22Q71.44-1.22 69.97-1.17L69.97-1.17L69.97-1.17Q68.51-1.12 66.97-1.00L66.97-1.00L66.97-1.00Q65.43-0.88 63.87-0.63L63.87-0.63L63.87-0.63Q62.30-0.39 60.99 0L60.99 0L60.99 0Q60.99-2.44 59.59-5.81L59.59-5.81L59.59-5.81Q58.20-9.18 55.93-12.89L55.93-12.89L55.93-12.89Q53.66-16.60 50.81-20.41L50.81-20.41L50.81-20.41Q47.95-24.22 45.04-27.61L45.04-27.61L45.04-27.61Q42.14-31.01 39.45-33.72L39.45-33.72L39.45-33.72Q36.77-36.43 34.86-37.94L34.86-37.94L34.86-37.94Q33.94-35.74 33.64-31.05L33.64-31.05L33.64-31.05Q33.35-26.37 33.35-19.87L33.35-19.87L33.35-19.87Q33.35-17.77 33.81-16.38L33.81-16.38L33.81-16.38Q34.28-14.99 35.35-14.18L35.35-14.18L35.35-14.18Q36.43-13.38 38.11-13.04L38.11-13.04L38.11-13.04Q39.79-12.70 42.24-12.70L42.24-12.70L42.24-12.70Q41.99-11.52 41.75-9.89L41.75-9.89L41.75-9.89Q41.50-8.25 41.50-6.54L41.50-6.54L41.50-6.54Q41.50-4.69 41.72-2.95L41.72-2.95L41.72-2.95Q41.94-1.22 42.24 0L42.24 0L42.24 0Q40.82-0.29 38.67-0.51L38.67-0.51L38.67-0.51Q36.52-0.73 33.98-0.90L33.98-0.90L33.98-0.90Q31.45-1.07 28.76-1.15L28.76-1.15L28.76-1.15Q26.07-1.22 23.58-1.22L23.58-1.22L23.58-1.22Q21.09-1.22 18.38-1.15L18.38-1.15L18.38-1.15Q15.67-1.07 13.13-0.90L13.13-0.90L13.13-0.90Q10.60-0.73 8.42-0.51L8.42-0.51L8.42-0.51Q6.25-0.29 4.88 0ZM96.44 0L96.44 0L96.44 0Q96.73-1.22 96.95-2.95L96.95-2.95L96.95-2.95Q97.17-4.69 97.17-6.54L97.17-6.54L97.17-6.54Q97.17-8.25 96.92-9.89L96.92-9.89L96.92-9.89Q96.68-11.52 96.44-12.70L96.44-12.70L96.44-12.70Q98.63-12.70 100.29-13.04L100.29-13.04L100.29-13.04Q101.95-13.38 103.08-14.18L103.08-14.18L103.08-14.18Q104.20-14.99 104.76-16.38L104.76-16.38L104.76-16.38Q105.32-17.77 105.32-19.87L105.32-19.87L105.32-19.87Q105.32-23.97 105.10-26.90L105.10-26.90L105.10-26.90Q104.88-29.83 104.47-31.74L104.47-31.74L104.47-31.74Q104.05-33.64 103.42-34.64L103.42-34.64L103.42-34.64Q102.78-35.64 101.95-35.89L101.95-35.89L101.95-35.89Q102.83-36.18 103.47-36.82L103.47-36.82L103.47-36.82Q104.10-37.45 104.52-38.99L104.52-38.99L104.52-38.99Q104.93-40.53 105.13-43.24L105.13-43.24L105.13-43.24Q105.32-45.95 105.32-50.44L105.32-50.44L105.32-50.44Q105.32-52.54 104.76-53.93L104.76-53.93L104.76-53.93Q104.20-55.32 103.08-56.13L103.08-56.13L103.08-56.13Q101.95-56.93 100.29-57.28L100.29-57.28L100.29-57.28Q98.63-57.62 96.44-57.62L96.44-57.62L96.44-57.62Q96.68-58.79 96.92-60.42L96.92-60.42L96.92-60.42Q97.17-62.06 97.17-63.77L97.17-63.77L97.17-63.77Q97.17-65.63 96.95-67.36L96.95-67.36L96.95-67.36Q96.73-69.09 96.44-70.31L96.44-70.31L96.44-70.31Q97.41-70.07 99.80-69.85L99.80-69.85L99.80-69.85Q102.20-69.63 105.37-69.43L105.37-69.43L105.37-69.43Q108.54-69.24 112.16-69.09L112.16-69.09L112.16-69.09Q115.77-68.95 119.21-68.82L119.21-68.82L119.21-68.82Q122.66-68.70 125.56-68.65L125.56-68.65L125.56-68.65Q128.47-68.60 130.22-68.60L130.22-68.60L130.22-68.60Q131.98-68.60 134.72-68.65L134.72-68.65L134.72-68.65Q137.45-68.70 140.60-68.82L140.60-68.82L140.60-68.82Q143.75-68.95 147.05-69.09L147.05-69.09L147.05-69.09Q150.34-69.24 153.25-69.43L153.25-69.43L153.25-69.43Q156.15-69.63 158.37-69.85L158.37-69.85L158.37-69.85Q160.60-70.07 161.57-70.31L161.57-70.31L161.57-70.31Q161.18-68.26 160.77-65.11L160.77-65.11L160.77-65.11Q160.35-61.96 160.35-58.45L160.35-58.45L160.35-58.45Q160.35-56.40 160.50-54.42L160.50-54.42L160.50-54.42Q160.64-52.44 160.82-50.81L160.82-50.81L160.82-50.81Q160.99-49.17 161.21-47.95L161.21-47.95L161.21-47.95Q161.43-46.73 161.57-46.14L161.57-46.14L161.57-46.14Q160.84-46.44 159.74-46.66L159.74-46.66L159.74-46.66Q158.64-46.88 157.37-47.05L157.37-47.05L157.37-47.05Q156.10-47.22 154.74-47.29L154.74-47.29L154.74-47.29Q153.37-47.36 152.10-47.36L152.10-47.36L152.10-47.36Q149.85-47.36 147.61-47.09L147.61-47.09L147.61-47.09Q145.36-46.83 143.31-46.14L143.31-46.14L143.31-46.14Q143.65-47.17 143.87-48.63L143.87-48.63L143.87-48.63Q144.09-50.10 144.09-51.61L144.09-51.61L144.09-51.61Q144.09-54.10 143.24-55.59L143.24-55.59L143.24-55.59Q142.38-57.08 141.06-57.86L141.06-57.86L141.06-57.86Q139.75-58.64 138.18-58.86L138.18-58.86L138.18-58.86Q136.62-59.08 135.21-59.08L135.21-59.08L135.21-59.08Q134.08-59.08 132.84-59.01L132.84-59.01L132.84-59.01Q131.59-58.94 130.30-58.67L130.30-58.67L130.30-58.67Q129.00-58.40 127.73-57.93L127.73-57.93L127.73-57.93Q126.46-57.47 125.39-56.69L125.39-56.69L125.39-56.69Q125.20-55.57 125.05-54.10L125.05-54.10L125.05-54.10Q124.90-52.64 124.90-50.44L124.90-50.44L124.90-50.44Q124.90-47.17 125.02-45.34L125.02-45.34L125.02-45.34Q125.15-43.51 125.34-42.53L125.34-42.53L125.34-42.53Q126.66-41.94 128.42-41.70L128.42-41.70L128.42-41.70Q130.18-41.46 132.03-41.46L132.03-41.46L132.03-41.46Q134.81-41.46 137.30-41.89L137.30-41.89L137.30-41.89Q139.79-42.33 140.92-42.92L140.92-42.92L140.92-42.92Q140.53-41.85 140.36-39.94L140.36-39.94L140.36-39.94Q140.19-38.04 140.19-35.94L140.19-35.94L140.19-35.94Q140.19-34.77 140.23-33.62L140.23-33.62L140.23-33.62Q140.28-32.47 140.41-31.52L140.41-31.52L140.41-31.52Q140.53-30.57 140.65-29.86L140.65-29.86L140.65-29.86Q140.77-29.15 140.92-28.81L140.92-28.81L140.92-28.81Q140.48-29.05 139.50-29.32L139.50-29.32L139.50-29.32Q138.53-29.59 137.23-29.83L137.23-29.83L137.23-29.83Q135.94-30.08 134.40-30.25L134.40-30.25L134.40-30.25Q132.86-30.42 131.25-30.42L131.25-30.42L131.25-30.42Q129.59-30.42 128.08-30.22L128.08-30.22L128.08-30.22Q126.56-30.03 125.34-29.49L125.34-29.49L125.34-29.49Q125.24-28.91 125.17-28.15L125.17-28.15L125.17-28.15Q125.10-27.39 125.02-26.25L125.02-26.25L125.02-26.25Q124.95-25.10 124.93-23.54L124.93-23.54L124.93-23.54Q124.90-21.97 124.90-19.87L124.90-19.87L124.90-19.87Q124.90-17.24 125.10-15.60L125.10-15.60L125.10-15.60Q125.29-13.96 125.54-12.79L125.54-12.79L125.54-12.79Q126.71-12.16 128.03-11.74L128.03-11.74L128.03-11.74Q129.35-11.33 130.69-11.11L130.69-11.11L130.69-11.11Q132.03-10.89 133.30-10.82L133.30-10.82L133.30-10.82Q134.57-10.74 135.69-10.74L135.69-10.74L135.69-10.74Q137.11-10.74 138.60-11.11L138.60-11.11L138.60-11.11Q140.09-11.47 141.31-12.48L141.31-12.48L141.31-12.48Q142.53-13.48 143.31-15.26L143.31-15.26L143.31-15.26Q144.09-17.04 144.09-19.82L144.09-19.82L144.09-19.82Q144.09-21.58 143.87-23.29L143.87-23.29L143.87-23.29Q143.65-25 143.31-26.12L143.31-26.12L143.31-26.12Q145.36-25.44 147.61-25.17L147.61-25.17L147.61-25.17Q149.85-24.90 152.10-24.90L152.10-24.90L152.10-24.90Q153.37-24.90 154.74-24.98L154.74-24.98L154.74-24.98Q156.10-25.05 157.37-25.22L157.37-25.22L157.37-25.22Q158.64-25.39 159.74-25.61L159.74-25.61L159.74-25.61Q160.84-25.83 161.57-26.12L161.57-26.12L161.57-26.12Q161.43-25.49 161.21-24.17L161.21-24.17L161.21-24.17Q160.99-22.85 160.82-21.07L160.82-21.07L160.82-21.07Q160.64-19.29 160.50-17.16L160.50-17.16L160.50-17.16Q160.35-15.04 160.35-12.84L160.35-12.84L160.35-12.84Q160.35-10.94 160.47-9.11L160.47-9.11L160.47-9.11Q160.60-7.28 160.77-5.62L160.77-5.62L160.77-5.62Q160.94-3.96 161.16-2.51L161.16-2.51L161.16-2.51Q161.38-1.07 161.57 0L161.57 0L161.57 0Q160.60-0.20 158.37-0.37L158.37-0.37L158.37-0.37Q156.15-0.54 153.25-0.66L153.25-0.66L153.25-0.66Q150.34-0.78 147.05-0.90L147.05-0.90L147.05-0.90Q143.75-1.03 140.60-1.10L140.60-1.10L140.60-1.10Q137.45-1.17 134.72-1.20L134.72-1.20L134.72-1.20Q131.98-1.22 130.22-1.22L130.22-1.22L130.22-1.22Q128.47-1.22 125.56-1.20L125.56-1.20L125.56-1.20Q122.66-1.17 119.21-1.10L119.21-1.10L119.21-1.10Q115.77-1.03 112.16-0.90L112.16-0.90L112.16-0.90Q108.54-0.78 105.37-0.66L105.37-0.66L105.37-0.66Q102.20-0.54 99.80-0.37L99.80-0.37L99.80-0.37Q97.41-0.20 96.44 0ZM173.63 0L173.63 0L173.63 0Q173.73-0.39 173.90-1.42L173.90-1.42L173.90-1.42Q174.07-2.44 174.22-3.83L174.22-3.83L174.22-3.83Q174.37-5.22 174.49-6.81L174.49-6.81L174.49-6.81Q174.61-8.40 174.61-9.91L174.61-9.91L174.61-9.91Q174.61-13.96 174.29-17.04L174.29-17.04L174.29-17.04Q173.97-20.12 173.63-21.24L173.63-21.24L173.63-21.24Q176.42-20.80 178.86-20.65L178.86-20.65L178.86-20.65Q181.30-20.51 183.64-20.51L183.64-20.51L183.64-20.51Q187.94-20.51 191.26-21.24L191.26-21.24L191.26-21.24Q191.26-19.09 192.29-17.16L192.29-17.16L192.29-17.16Q193.31-15.23 195.14-13.82L195.14-13.82L195.14-13.82Q196.97-12.40 199.54-11.57L199.54-11.57L199.54-11.57Q202.10-10.74 205.22-10.74L205.22-10.74L205.22-10.74Q207.32-10.74 209.47-10.96L209.47-10.96L209.47-10.96Q211.62-11.18 213.35-11.91L213.35-11.91L213.35-11.91Q215.09-12.65 216.16-14.01L216.16-14.01L216.16-14.01Q217.24-15.38 217.24-17.68L217.24-17.68L217.24-17.68Q217.24-19.34 216.24-21.12L216.24-21.12L216.24-21.12Q215.23-22.90 213.11-24.32L213.11-24.32L213.11-24.32Q210.99-25.73 207.64-26.66L207.64-26.66L207.64-26.66Q204.30-27.59 199.61-27.59L199.61-27.59L199.61-27.59Q195.61-27.59 191.67-27.37L191.67-27.37L191.67-27.37Q187.74-27.15 183.15-25.98L183.15-25.98L183.15-25.98Q183.06-27.44 182.10-29.20L182.10-29.20L182.10-29.20Q181.15-30.96 179.66-32.50L179.66-32.50L179.66-32.50Q178.17-34.03 176.25-35.08L176.25-35.08L176.25-35.08Q174.32-36.13 172.31-36.13L172.31-36.13L171.83-36.13L171.83-36.13Q172.41-36.38 172.85-37.26L172.85-37.26L172.85-37.26Q173.29-38.13 173.56-39.40L173.56-39.40L173.56-39.40Q173.83-40.67 173.97-42.21L173.97-42.21L173.97-42.21Q174.12-43.75 174.12-45.36L174.12-45.36L174.12-45.36Q174.12-49.41 173.71-52.64L173.71-52.64L173.71-52.64Q173.29-55.86 172.51-57.23L172.51-57.23L172.85-57.23L172.85-57.23Q174.27-57.23 175.98-57.96L175.98-57.96L175.98-57.96Q177.69-58.69 179.42-59.89L179.42-59.89L179.42-59.89Q181.15-61.08 182.81-62.57L182.81-62.57L182.81-62.57Q184.47-64.06 185.77-65.63L185.77-65.63L185.77-65.63Q187.06-67.19 187.89-68.68L187.89-68.68L187.89-68.68Q188.72-70.17 188.82-71.29L188.82-71.29L188.82-71.29Q189.55-70.85 190.65-70.39L190.65-70.39L190.65-70.39Q191.75-69.92 193.38-69.51L193.38-69.51L193.38-69.51Q195.02-69.09 197.27-68.85L197.27-68.85L197.27-68.85Q199.51-68.60 202.59-68.60L202.59-68.60L202.59-68.60Q204.39-68.60 206.42-68.80L206.42-68.80L206.42-68.80Q208.45-68.99 210.35-69.36L210.35-69.36L210.35-69.36Q212.26-69.73 213.92-70.21L213.92-70.21L213.92-70.21Q215.58-70.70 216.60-71.29L216.60-71.29L216.60-71.29Q216.99-69.78 217.92-68.19L217.92-68.19L217.92-68.19Q218.85-66.60 220.12-65.48L220.12-65.48L220.12-65.48Q221.39-66.55 221.97-67.92L221.97-67.92L221.97-67.92Q222.56-69.29 222.80-70.31L222.80-70.31L222.80-70.31Q223.54-69.87 225-69.60L225-69.60L225-69.60Q226.46-69.34 228.81-69.34L228.81-69.34L228.81-69.34Q232.37-69.34 235.45-70.31L235.45-70.31L235.45-70.31Q235.35-69.92 235.21-68.80L235.21-68.80L235.21-68.80Q235.06-67.68 234.91-66.21L234.91-66.21L234.91-66.21Q234.77-64.75 234.67-63.09L234.67-63.09L234.67-63.09Q234.57-61.43 234.57-59.91L234.57-59.91L234.57-59.91Q234.57-55.66 234.89-52.47L234.89-52.47L234.89-52.47Q235.21-49.27 235.45-48.10L235.45-48.10L235.45-48.10Q232.96-48.54 230.76-48.68L230.76-48.68L230.76-48.68Q228.56-48.83 226.37-48.83L226.37-48.83L226.37-48.83Q222.07-48.83 218.80-48.10L218.80-48.10L218.80-48.10Q218.80-50.34 217.77-52.34L217.77-52.34L217.77-52.34Q216.75-54.35 214.92-55.86L214.92-55.86L214.92-55.86Q213.09-57.37 210.52-58.23L210.52-58.23L210.52-58.23Q207.96-59.08 204.83-59.08L204.83-59.08L204.83-59.08Q202.69-59.08 200.56-58.76L200.56-58.76L200.56-58.76Q198.44-58.45 196.70-57.64L196.70-57.64L196.70-57.64Q194.97-56.84 193.90-55.52L193.90-55.52L193.90-55.52Q192.82-54.20 192.82-52.15L192.82-52.15L192.82-52.15Q192.82-50.44 193.68-48.83L193.68-48.83L193.68-48.83Q194.53-47.22 196.48-45.95L196.48-45.95L196.48-45.95Q198.44-44.68 201.64-43.90L201.64-43.90L201.64-43.90Q204.83-43.12 209.52-43.12L209.52-43.12L209.52-43.12Q211.47-43.12 213.77-43.14L213.77-43.14L213.77-43.14Q216.06-43.16 218.31-43.29L218.31-43.29L218.31-43.29Q220.56-43.41 222.56-43.65L222.56-43.65L222.56-43.65Q224.56-43.90 226.03-44.34L226.03-44.34L226.03-44.34Q226.17-42.87 227.25-41.02L227.25-41.02L227.25-41.02Q228.32-39.16 229.96-37.52L229.96-37.52L229.96-37.52Q231.59-35.89 233.64-34.79L233.64-34.79L233.64-34.79Q235.69-33.69 237.74-33.69L237.74-33.69L238.23-33.69L238.23-33.69Q237.65-33.45 237.21-32.57L237.21-32.57L237.21-32.57Q236.77-31.69 236.50-30.42L236.50-30.42L236.50-30.42Q236.23-29.15 236.08-27.61L236.08-27.61L236.08-27.61Q235.94-26.07 235.94-24.46L235.94-24.46L235.94-24.46Q235.94-22.46 236.04-20.61L236.04-20.61L236.04-20.61Q236.13-18.75 236.35-17.19L236.35-17.19L236.35-17.19Q236.57-15.63 236.87-14.43L236.87-14.43L236.87-14.43Q237.16-13.23 237.55-12.60L237.55-12.60L237.21-12.60L237.21-12.60Q235.79-12.60 234.08-11.91L234.08-11.91L234.08-11.91Q232.37-11.23 230.62-10.08L230.62-10.08L230.62-10.08Q228.86-8.94 227.20-7.50L227.20-7.50L227.20-7.50Q225.54-6.05 224.22-4.54L224.22-4.54L224.22-4.54Q222.90-3.03 222.09-1.59L222.09-1.59L222.09-1.59Q221.29-0.15 221.24 0.98L221.24 0.98L221.24 0.98Q220.51 0.54 219.41 0.15L219.41 0.15L219.41 0.15Q218.31-0.24 216.67-0.56L216.67-0.56L216.67-0.56Q215.04-0.88 212.79-1.05L212.79-1.05L212.79-1.05Q210.55-1.22 207.47-1.22L207.47-1.22L207.47-1.22Q205.66-1.22 203.78-1.10L203.78-1.10L203.78-1.10Q201.90-0.98 200.17-0.71L200.17-0.71L200.17-0.71Q198.44-0.44 196.95-0.02L196.95-0.02L196.95-0.02Q195.46 0.39 194.43 0.98L194.43 0.98L194.43 0.98Q193.99-0.54 193.09-1.95L193.09-1.95L193.09-1.95Q192.19-3.37 190.92-4.39L190.92-4.39L190.92-4.39Q189.60-3.42 189.04-2.22L189.04-2.22L189.04-2.22Q188.48-1.03 188.23 0L188.23 0L188.23 0Q187.84-0.20 186.99-0.42L186.99-0.42L186.99-0.42Q186.13-0.63 185.06-0.81L185.06-0.81L185.06-0.81Q183.98-0.98 182.76-1.10L182.76-1.10L182.76-1.10Q181.54-1.22 180.37-1.22L180.37-1.22L180.37-1.22Q178.47-1.22 176.66-0.88L176.66-0.88L176.66-0.88Q174.85-0.54 173.63 0ZM244.34 0L244.34 0L244.34 0Q244.63-1.22 244.85-2.95L244.85-2.95L244.85-2.95Q245.07-4.69 245.07-6.54L245.07-6.54L245.07-6.54Q245.07-8.25 244.82-9.89L244.82-9.89L244.82-9.89Q244.58-11.52 244.34-12.70L244.34-12.70L244.34-12.70Q246.78-12.70 248.46-13.04L248.46-13.04L248.46-13.04Q250.15-13.38 251.22-14.18L251.22-14.18L251.22-14.18Q252.29-14.99 252.76-16.38L252.76-16.38L252.76-16.38Q253.22-17.77 253.22-19.87L253.22-19.87L253.22-19.87Q253.22-23.97 253.00-26.90L253.00-26.90L253.00-26.90Q252.78-29.83 252.37-31.74L252.37-31.74L252.37-31.74Q251.95-33.64 251.32-34.64L251.32-34.64L251.32-34.64Q250.68-35.64 249.85-35.89L249.85-35.89L249.85-35.89Q250.73-36.18 251.37-36.94L251.37-36.94L251.37-36.94Q252.00-37.70 252.42-39.40L252.42-39.40L252.42-39.40Q252.83-41.11 253.03-43.97L253.03-43.97L253.03-43.97Q253.22-46.83 253.22-51.32L253.22-51.32L253.22-51.32Q253.22-53.27 252.66-54.49L252.66-54.49L252.66-54.49Q252.10-55.71 251.07-56.42L251.07-56.42L251.07-56.42Q250.05-57.13 248.58-57.37L248.58-57.37L248.58-57.37Q247.12-57.62 245.31-57.62L245.31-57.62L244.34-57.62L244.34-57.62Q244.58-58.79 244.82-60.33L244.82-60.33L244.82-60.33Q245.07-61.87 245.07-63.57L245.07-63.57L245.07-63.57Q245.07-65.38 244.85-67.24L244.85-67.24L244.85-67.24Q244.63-69.09 244.34-70.31L244.34-70.31L244.34-70.31Q245.26-69.97 247.24-69.68L247.24-69.68L247.24-69.68Q249.22-69.38 251.78-69.14L251.78-69.14L251.78-69.14Q254.35-68.90 257.28-68.75L257.28-68.75L257.28-68.75Q260.21-68.60 262.99-68.60L262.99-68.60L262.99-68.60Q265.77-68.60 268.68-68.75L268.68-68.75L268.68-68.75Q271.58-68.90 274.15-69.14L274.15-69.14L274.15-69.14Q276.71-69.38 278.71-69.68L278.71-69.68L278.71-69.68Q280.71-69.97 281.69-70.31L281.69-70.31L281.69-70.31Q281.40-69.09 281.18-67.24L281.18-67.24L281.18-67.24Q280.96-65.38 280.96-63.57L280.96-63.57L280.96-63.57Q280.96-61.87 281.20-60.33L281.20-60.33L281.20-60.33Q281.45-58.79 281.69-57.62L281.69-57.62L280.76-57.62L280.76-57.62Q279.10-57.62 277.66-57.37L277.66-57.37L277.66-57.37Q276.22-57.13 275.15-56.42L275.15-56.42L275.15-56.42Q274.07-55.71 273.44-54.49L273.44-54.49L273.44-54.49Q272.80-53.27 272.80-51.32L272.80-51.32L272.80-51.32Q272.80-47.95 272.90-45.61L272.90-45.61L272.90-45.61Q273.00-43.26 273.24-41.55L273.24-41.55L273.24-41.55Q276.03-41.02 279.59-40.77L279.59-40.77L279.59-40.77Q283.15-40.53 286.96-40.53L286.96-40.53L286.96-40.53Q290.77-40.53 294.31-40.80L294.31-40.80L294.31-40.80Q297.85-41.06 300.63-41.60L300.63-41.60L300.63-41.60Q300.88-43.31 300.98-45.68L300.98-45.68L300.98-45.68Q301.07-48.05 301.07-51.32L301.07-51.32L301.07-51.32Q301.07-53.27 300.51-54.49L300.51-54.49L300.51-54.49Q299.95-55.71 298.93-56.42L298.93-56.42L298.93-56.42Q297.90-57.13 296.44-57.37L296.44-57.37L296.44-57.37Q294.97-57.62 293.16-57.62L293.16-57.62L292.19-57.62L292.19-57.62Q292.43-58.79 292.68-60.33L292.68-60.33L292.68-60.33Q292.92-61.87 292.92-63.57L292.92-63.57L292.92-63.57Q292.92-65.38 292.70-67.24L292.70-67.24L292.70-67.24Q292.48-69.09 292.19-70.31L292.19-70.31L292.19-70.31Q293.12-69.97 295.09-69.68L295.09-69.68L295.09-69.68Q297.07-69.38 299.63-69.14L299.63-69.14L299.63-69.14Q302.20-68.90 305.13-68.75L305.13-68.75L305.13-68.75Q308.06-68.60 310.84-68.60L310.84-68.60L310.84-68.60Q313.62-68.60 316.53-68.75L316.53-68.75L316.53-68.75Q319.43-68.90 322.00-69.14L322.00-69.14L322.00-69.14Q324.56-69.38 326.56-69.68L326.56-69.68L326.56-69.68Q328.56-69.97 329.54-70.31L329.54-70.31L329.54-70.31Q329.25-69.09 329.03-67.24L329.03-67.24L329.03-67.24Q328.81-65.38 328.81-63.57L328.81-63.57L328.81-63.57Q328.81-61.87 329.05-60.33L329.05-60.33L329.05-60.33Q329.30-58.79 329.54-57.62L329.54-57.62L328.61-57.62L328.61-57.62Q326.95-57.62 325.51-57.37L325.51-57.37L325.51-57.37Q324.07-57.13 323.00-56.42L323.00-56.42L323.00-56.42Q321.92-55.71 321.29-54.49L321.29-54.49L321.29-54.49Q320.65-53.27 320.65-51.32L320.65-51.32L320.65-51.32Q320.65-46.83 320.85-43.97L320.85-43.97L320.85-43.97Q321.04-41.11 321.46-39.40L321.46-39.40L321.46-39.40Q321.88-37.70 322.51-36.94L322.51-36.94L322.51-36.94Q323.14-36.18 324.02-35.89L324.02-35.89L324.02-35.89Q323.19-35.64 322.56-34.64L322.56-34.64L322.56-34.64Q321.92-33.64 321.51-31.74L321.51-31.74L321.51-31.74Q321.09-29.83 320.87-26.90L320.87-26.90L320.87-26.90Q320.65-23.97 320.65-19.87L320.65-19.87L320.65-19.87Q320.65-17.77 321.22-16.38L321.22-16.38L321.22-16.38Q321.78-14.99 322.90-14.18L322.90-14.18L322.90-14.18Q324.02-13.38 325.68-13.04L325.68-13.04L325.68-13.04Q327.34-12.70 329.54-12.70L329.54-12.70L329.54-12.70Q329.30-11.52 329.05-9.89L329.05-9.89L329.05-9.89Q328.81-8.25 328.81-6.54L328.81-6.54L328.81-6.54Q328.81-4.69 329.03-2.95L329.03-2.95L329.03-2.95Q329.25-1.22 329.54 0L329.54 0L329.54 0Q328.13-0.29 325.98-0.51L325.98-0.51L325.98-0.51Q323.83-0.73 321.29-0.90L321.29-0.90L321.29-0.90Q318.75-1.07 316.04-1.15L316.04-1.15L316.04-1.15Q313.33-1.22 310.84-1.22L310.84-1.22L310.84-1.22Q308.35-1.22 305.64-1.15L305.64-1.15L305.64-1.15Q302.93-1.07 300.39-0.90L300.39-0.90L300.39-0.90Q297.85-0.73 295.70-0.51L295.70-0.51L295.70-0.51Q293.55-0.29 292.19 0L292.19 0L292.19 0Q292.48-1.22 292.70-2.95L292.70-2.95L292.70-2.95Q292.92-4.69 292.92-6.54L292.92-6.54L292.92-6.54Q292.92-8.25 292.68-9.89L292.68-9.89L292.68-9.89Q292.43-11.52 292.19-12.70L292.19-12.70L292.19-12.70Q294.63-12.70 296.31-13.04L296.31-13.04L296.31-13.04Q298.00-13.38 299.07-14.18L299.07-14.18L299.07-14.18Q300.15-14.99 300.61-16.38L300.61-16.38L300.61-16.38Q301.07-17.77 301.07-19.87L301.07-19.87L301.07-19.87Q301.07-25.68 300.63-29.30L300.63-29.30L300.63-29.30Q297.85-29.88 294.34-30.20L294.34-30.20L294.34-30.20Q290.82-30.52 286.96-30.52L286.96-30.52L286.96-30.52Q283.30-30.52 279.69-30.22L279.69-30.22L279.69-30.22Q276.07-29.93 273.24-29.39L273.24-29.39L273.24-29.39Q272.80-25.78 272.80-19.87L272.80-19.87L272.80-19.87Q272.80-17.77 273.36-16.38L273.36-16.38L273.36-16.38Q273.93-14.99 275.05-14.18L275.05-14.18L275.05-14.18Q276.17-13.38 277.83-13.04L277.83-13.04L277.83-13.04Q279.49-12.70 281.69-12.70L281.69-12.70L281.69-12.70Q281.45-11.52 281.20-9.89L281.20-9.89L281.20-9.89Q280.96-8.25 280.96-6.54L280.96-6.54L280.96-6.54Q280.96-4.69 281.18-2.95L281.18-2.95L281.18-2.95Q281.40-1.22 281.69 0L281.69 0L281.69 0Q280.27-0.29 278.13-0.51L278.13-0.51L278.13-0.51Q275.98-0.73 273.44-0.90L273.44-0.90L273.44-0.90Q270.90-1.07 268.19-1.15L268.19-1.15L268.19-1.15Q265.48-1.22 262.99-1.22L262.99-1.22L262.99-1.22Q260.50-1.22 257.79-1.15L257.79-1.15L257.79-1.15Q255.08-1.07 252.54-0.90L252.54-0.90L252.54-0.90Q250-0.73 247.85-0.51L247.85-0.51L247.85-0.51Q245.70-0.29 244.34 0ZM378.61 0L378.61 0L378.61 0Q378.91-1.22 379.13-2.95L379.13-2.95L379.13-2.95Q379.35-4.69 379.35-6.54L379.35-6.54L379.35-6.54Q379.35-8.25 379.10-9.89L379.10-9.89L379.10-9.89Q378.86-11.52 378.61-12.70L378.61-12.70L378.61-12.70Q380.81-12.70 382.47-13.04L382.47-13.04L382.47-13.04Q384.13-13.38 385.25-14.18L385.25-14.18L385.25-14.18Q386.38-14.99 386.94-16.38L386.94-16.38L386.94-16.38Q387.50-17.77 387.50-19.87L387.50-19.87L387.50-19.87Q387.50-23.97 387.28-26.90L387.28-26.90L387.28-26.90Q387.06-29.83 386.65-31.74L386.65-31.74L386.65-31.74Q386.23-33.64 385.60-34.64L385.60-34.64L385.60-34.64Q384.96-35.64 384.13-35.89L384.13-35.89L384.13-35.89Q385.01-36.18 385.64-36.94L385.64-36.94L385.64-36.94Q386.28-37.70 386.69-39.40L386.69-39.40L386.69-39.40Q387.11-41.11 387.30-43.97L387.30-43.97L387.30-43.97Q387.50-46.83 387.50-51.32L387.50-51.32L387.50-51.32Q387.50-53.27 386.87-54.49L386.87-54.49L386.87-54.49Q386.23-55.71 385.16-56.42L385.16-56.42L385.16-56.42Q384.08-57.13 382.64-57.37L382.64-57.37L382.64-57.37Q381.20-57.62 379.54-57.62L379.54-57.62L378.61-57.62L378.61-57.62Q378.86-58.79 379.10-60.33L379.10-60.33L379.10-60.33Q379.35-61.87 379.35-63.57L379.35-63.57L379.35-63.57Q379.35-65.38 379.13-67.24L379.13-67.24L379.13-67.24Q378.91-69.09 378.61-70.31L378.61-70.31L378.61-70.31Q379.54-69.97 381.54-69.68L381.54-69.68L381.54-69.68Q383.54-69.38 386.13-69.14L386.13-69.14L386.13-69.14Q388.72-68.90 391.63-68.75L391.63-68.75L391.63-68.75Q394.53-68.60 397.31-68.60L397.31-68.60L397.31-68.60Q400.15-68.60 403.30-68.75L403.30-68.75L403.30-68.75Q406.45-68.90 409.30-69.14L409.30-69.14L409.30-69.14Q412.16-69.38 414.36-69.68L414.36-69.68L414.36-69.68Q416.55-69.97 417.53-70.31L417.53-70.31L417.53-70.31Q417.24-69.09 417.02-67.24L417.02-67.24L417.02-67.24Q416.80-65.38 416.80-63.57L416.80-63.57L416.80-63.57Q416.80-61.87 417.04-60.33L417.04-60.33L417.04-60.33Q417.29-58.79 417.53-57.62L417.53-57.62L416.50-57.62L416.50-57.62Q414.65-57.62 412.94-57.37L412.94-57.37L412.94-57.37Q411.23-57.13 409.94-56.42L409.94-56.42L409.94-56.42Q408.64-55.71 407.86-54.49L407.86-54.49L407.86-54.49Q407.08-53.27 407.08-51.32L407.08-51.32L407.08-51.32Q407.08-46.83 407.28-43.97L407.28-43.97L407.28-43.97Q407.47-41.11 407.89-39.40L407.89-39.40L407.89-39.40Q408.30-37.70 408.94-36.94L408.94-36.94L408.94-36.94Q409.57-36.18 410.45-35.89L410.45-35.89L410.45-35.89Q409.62-35.64 408.98-34.64L408.98-34.64L408.98-34.64Q408.35-33.64 407.93-31.74L407.93-31.74L407.93-31.74Q407.52-29.83 407.30-26.90L407.30-26.90L407.30-26.90Q407.08-23.97 407.08-19.87L407.08-19.87L407.08-19.87Q407.08-17.33 407.28-15.67L407.28-15.67L407.28-15.67Q407.47-14.01 407.71-12.79L407.71-12.79L407.71-12.79Q409.77-11.77 412.18-11.35L412.18-11.35L412.18-11.35Q414.60-10.94 416.70-10.94L416.70-10.94L416.70-10.94Q419.78-10.94 421.83-11.23L421.83-11.23L421.83-11.23Q423.88-11.52 425.10-12.55L425.10-12.55L425.10-12.55Q426.32-13.57 426.81-15.55L426.81-15.55L426.81-15.55Q427.29-17.53 427.29-20.90L427.29-20.90L427.29-20.90Q427.29-23.97 427.00-26.00L427.00-26.00L427.00-26.00Q426.71-28.03 426.29-29.37L426.29-29.37L426.29-29.37Q425.88-30.71 425.49-31.57L425.49-31.57L425.49-31.57Q425.10-32.42 424.95-33.20L424.95-33.20L424.95-33.20Q425.88-32.86 427.47-32.62L427.47-32.62L427.47-32.62Q429.05-32.37 430.79-32.23L430.79-32.23L430.79-32.23Q432.52-32.08 434.18-32.03L434.18-32.03L434.18-32.03Q435.84-31.98 436.96-31.98L436.96-31.98L436.96-31.98Q438.18-31.98 439.58-32.06L439.58-32.06L439.58-32.06Q440.97-32.13 442.29-32.30L442.29-32.30L442.29-32.30Q443.60-32.47 444.73-32.69L444.73-32.69L444.73-32.69Q445.85-32.91 446.63-33.20L446.63-33.20L446.63-33.20Q446.39-32.47 445.70-30.42L445.70-30.42L445.70-30.42Q445.02-28.37 444.34-25.63L444.34-25.63L444.34-25.63Q443.65-22.90 443.12-19.78L443.12-19.78L443.12-19.78Q442.58-16.65 442.58-13.82L442.58-13.82L442.58-13.82Q442.63-11.91 442.65-9.94L442.65-9.94L442.65-9.94Q442.68-7.96 442.77-6.13L442.77-6.13L442.77-6.13Q442.87-4.30 443.19-2.71L443.19-2.71L443.19-2.71Q443.51-1.12 444.14 0L444.14 0L444.14 0Q443.21-0.20 440.99-0.37L440.99-0.37L440.99-0.37Q438.77-0.54 435.82-0.66L435.82-0.66L435.82-0.66Q432.86-0.78 429.49-0.90L429.49-0.90L429.49-0.90Q426.12-1.03 422.90-1.10L422.90-1.10L422.90-1.10Q419.68-1.17 416.92-1.20L416.92-1.20L416.92-1.20Q414.16-1.22 412.40-1.22L412.40-1.22L412.40-1.22Q410.64-1.22 407.74-1.20L407.74-1.20L407.74-1.20Q404.83-1.17 401.39-1.10L401.39-1.10L401.39-1.10Q397.95-1.03 394.34-0.90L394.34-0.90L394.34-0.90Q390.72-0.78 387.55-0.66L387.55-0.66L387.55-0.66Q384.38-0.54 381.98-0.37L381.98-0.37L381.98-0.37Q379.59-0.20 378.61 0ZM448.93 0L448.93 0L448.93 0Q449.22-1.22 449.37-3.00L449.37-3.00L449.37-3.00Q449.51-4.79 449.51-6.69L449.51-6.69L449.51-6.69Q449.51-8.45 449.39-9.99L449.39-9.99L449.39-9.99Q449.27-11.52 449.02-12.70L449.02-12.70L449.02-12.70Q451.51-12.79 453.27-13.60L453.27-13.60L453.27-13.60Q455.03-14.40 456.15-15.38L456.15-15.38L456.15-15.38Q457.32-17.19 458.54-19.43L458.54-19.43L458.54-19.43Q459.77-21.68 460.77-24.05L460.77-24.05L460.77-24.05Q461.77-26.42 462.40-28.78L462.40-28.78L462.40-28.78Q463.04-31.15 463.04-33.20L463.04-33.20L463.04-33.20Q463.04-34.03 462.79-34.86L462.79-34.86L462.79-34.86Q462.55-35.69 461.96-35.89L461.96-35.89L461.96-35.89Q463.43-36.28 464.89-38.04L464.89-38.04L464.89-38.04Q466.36-39.79 467.72-42.38L467.72-42.38L467.72-42.38Q469.09-44.97 470.26-48.14L470.26-48.14L470.26-48.14Q471.44-51.32 472.31-54.57L472.31-54.57L472.31-54.57Q473.19-57.81 473.68-60.89L473.68-60.89L473.68-60.89Q474.17-63.96 474.17-66.36L474.17-66.36L474.17-66.36Q474.17-67.19 474.07-67.97L474.07-67.97L474.07-67.97Q473.97-68.75 473.97-69.29L473.97-69.29L473.97-69.29Q473.97-69.53 474.00-69.73L474.00-69.73L474.00-69.73Q474.02-69.92 474.02-70.31L474.02-70.31L474.02-70.31Q475.15-69.87 476.83-69.56L476.83-69.56L476.83-69.56Q478.52-69.24 480.62-69.02L480.62-69.02L480.62-69.02Q482.71-68.80 485.11-68.70L485.11-68.70L485.11-68.70Q487.50-68.60 490.09-68.60L490.09-68.60L490.09-68.60Q492.33-68.60 494.68-68.70L494.68-68.70L494.68-68.70Q497.02-68.80 499.22-69.02L499.22-69.02L499.22-69.02Q501.42-69.24 503.32-69.56L503.32-69.56L503.32-69.56Q505.22-69.87 506.49-70.31L506.49-70.31L506.49-70.12L506.49-69.68L506.49-69.68Q506.49-69.14 506.37-68.33L506.37-68.33L506.37-68.33Q506.25-67.53 506.25-66.55L506.25-66.55L506.25-66.55Q506.25-64.31 506.67-61.28L506.67-61.28L506.67-61.28Q507.08-58.25 507.81-55.00L507.81-55.00L507.81-55.00Q508.54-51.76 509.59-48.56L509.59-48.56L509.59-48.56Q510.64-45.36 511.91-42.70L511.91-42.70L511.91-42.70Q513.18-40.04 514.65-38.21L514.65-38.21L514.65-38.21Q516.11-36.38 517.72-35.89L517.72-35.89L517.72-35.89Q517.04-35.64 516.77-34.94L516.77-34.94L516.77-34.94Q516.50-34.23 516.50-33.20L516.50-33.20L516.50-33.20Q516.50-31.15 517.11-28.78L517.11-28.78L517.11-28.78Q517.72-26.42 518.73-24.05L518.73-24.05L518.73-24.05Q519.73-21.68 520.92-19.48L520.92-19.48L520.92-19.48Q522.12-17.29 523.29-15.53L523.29-15.53L523.29-15.53Q524.02-15.09 525.05-14.60L525.05-14.60L525.05-14.60Q526.07-14.11 527.20-13.67L527.20-13.67L527.20-13.67Q528.32-13.23 529.44-12.96L529.44-12.96L529.44-12.96Q530.57-12.70 531.54-12.70L531.54-12.70L531.54-12.70Q531.30-11.52 531.18-9.99L531.18-9.99L531.18-9.99Q531.05-8.45 531.05-6.69L531.05-6.69L531.05-6.69Q531.05-4.79 531.20-3.00L531.20-3.00L531.20-3.00Q531.35-1.22 531.64 0L531.64 0L531.64 0Q529.88-0.20 527.59-0.42L527.59-0.42L527.59-0.42Q525.29-0.63 522.66-0.81L522.66-0.81L522.66-0.81Q520.02-0.98 517.19-1.10L517.19-1.10L517.19-1.10Q514.36-1.22 511.52-1.22L511.52-1.22L511.52-1.22Q506.35-1.22 501.68-0.90L501.68-0.90L501.68-0.90Q497.02-0.59 493.80 0L493.80 0L493.80 0Q493.95-0.83 494.07-2.61L494.07-2.61L494.07-2.61Q494.19-4.39 494.19-6.59L494.19-6.59L494.19-6.59Q494.19-7.52 494.14-8.47L494.14-8.47L494.14-8.47Q494.09-9.42 494.04-10.25L494.04-10.25L494.04-10.25Q493.99-11.08 493.92-11.74L493.92-11.74L493.92-11.74Q493.85-12.40 493.80-12.70L493.80-12.70L493.80-12.70Q494.68-12.70 495.65-12.77L495.65-12.77L495.65-12.77Q496.63-12.84 497.58-13.04L497.58-13.04L497.58-13.04Q498.54-13.23 499.41-13.57L499.41-13.57L499.41-13.57Q500.29-13.92 500.98-14.50L500.98-14.50L500.98-14.50Q500.88-16.46 500.34-17.85L500.34-17.85L500.34-17.85Q499.80-19.24 498.32-20.17L498.32-20.17L498.32-20.17Q496.83-21.09 494.17-21.53L494.17-21.53L494.17-21.53Q491.50-21.97 487.21-21.97L487.21-21.97L487.21-21.97Q483.35-21.97 480.79-21.68L480.79-21.68L480.79-21.68Q478.22-21.39 476.64-20.58L476.64-20.58L476.64-20.58Q475.05-19.78 474.29-18.33L474.29-18.33L474.29-18.33Q473.54-16.89 473.34-14.55L473.34-14.55L473.34-14.55Q474.07-13.96 475.10-13.62L475.10-13.62L475.10-13.62Q476.12-13.28 477.22-13.06L477.22-13.06L477.22-13.06Q478.32-12.84 479.42-12.77L479.42-12.77L479.42-12.77Q480.52-12.70 481.40-12.70L481.40-12.70L481.40-12.70Q481.30-12.40 481.23-11.77L481.23-11.77L481.23-11.77Q481.15-11.13 481.10-10.28L481.10-10.28L481.10-10.28Q481.05-9.42 481.03-8.45L481.03-8.45L481.03-8.45Q481.01-7.47 481.01-6.59L481.01-6.59L481.01-6.59Q481.01-4.39 481.13-2.61L481.13-2.61L481.13-2.61Q481.25-0.83 481.40 0L481.40 0L481.40 0Q477.69-0.68 473.88-0.95L473.88-0.95L473.88-0.95Q470.07-1.22 466.11-1.22L466.11-1.22L466.11-1.22Q461.52-1.22 457.20-0.95L457.20-0.95L457.20-0.95Q452.88-0.68 448.93 0ZM480.18-36.28L480.18-36.28L480.18-36.28Q480.18-34.86 480.49-33.94L480.49-33.94L480.49-33.94Q480.81-33.01 481.62-32.47L481.62-32.47L481.62-32.47Q482.42-31.93 483.81-31.71L483.81-31.71L483.81-31.71Q485.21-31.49 487.35-31.49L487.35-31.49L487.35-31.49Q489.50-31.49 490.89-31.71L490.89-31.71L490.89-31.71Q492.29-31.93 493.09-32.47L493.09-32.47L493.09-32.47Q493.90-33.01 494.21-33.94L494.21-33.94L494.21-33.94Q494.53-34.86 494.53-36.28L494.53-36.28L494.53-36.28Q494.53-37.99 493.65-40.48L493.65-40.48L493.65-40.48Q492.77-42.97 491.60-45.70L491.60-45.70L491.60-45.70Q490.43-48.44 489.21-51.17L489.21-51.17L489.21-51.17Q487.99-53.91 487.35-56.10L487.35-56.10L487.35-56.10Q486.62-53.91 485.40-51.17L485.40-51.17L485.40-51.17Q484.18-48.44 483.03-45.70L483.03-45.70L483.03-45.70Q481.88-42.97 481.03-40.48L481.03-40.48L481.03-40.48Q480.18-37.99 480.18-36.28ZM536.77 0L536.77 0L536.77 0Q537.06-1.22 537.28-2.95L537.28-2.95L537.28-2.95Q537.50-4.69 537.50-6.54L537.50-6.54L537.50-6.54Q537.50-8.25 537.26-9.89L537.26-9.89L537.26-9.89Q537.01-11.52 536.77-12.70L536.77-12.70L536.77-12.70Q538.96-12.70 540.63-13.04L540.63-13.04L540.63-13.04Q542.29-13.38 543.41-14.18L543.41-14.18L543.41-14.18Q544.53-14.99 545.09-16.38L545.09-16.38L545.09-16.38Q545.65-17.77 545.65-19.87L545.65-19.87L545.65-19.87Q545.65-23.97 545.43-26.90L545.43-26.90L545.43-26.90Q545.21-29.83 544.80-31.74L544.80-31.74L544.80-31.74Q544.38-33.64 543.75-34.64L543.75-34.64L543.75-34.64Q543.12-35.64 542.29-35.89L542.29-35.89L542.29-35.89Q543.16-36.18 543.80-36.82L543.80-36.82L543.80-36.82Q544.43-37.45 544.85-38.99L544.85-38.99L544.85-38.99Q545.26-40.53 545.46-43.24L545.46-43.24L545.46-43.24Q545.65-45.95 545.65-50.44L545.65-50.44L545.65-50.44Q545.65-52.54 545.09-53.93L545.09-53.93L545.09-53.93Q544.53-55.32 543.41-56.13L543.41-56.13L543.41-56.13Q542.29-56.93 540.63-57.28L540.63-57.28L540.63-57.28Q538.96-57.62 536.77-57.62L536.77-57.62L536.77-57.62Q537.01-58.79 537.26-60.42L537.26-60.42L537.26-60.42Q537.50-62.06 537.50-63.77L537.50-63.77L537.50-63.77Q537.50-65.63 537.28-67.36L537.28-67.36L537.28-67.36Q537.06-69.09 536.77-70.31L536.77-70.31L536.77-70.31Q537.40-70.07 539.26-69.82L539.26-69.82L539.26-69.82Q541.11-69.58 543.63-69.41L543.63-69.41L543.63-69.41Q546.14-69.24 549.07-69.09L549.07-69.09L549.07-69.09Q552.00-68.95 554.83-68.82L554.83-68.82L554.83-68.82Q557.67-68.70 560.13-68.65L560.13-68.65L560.13-68.65Q562.60-68.60 564.21-68.60L564.21-68.60L564.21-68.60Q568.26-68.60 572.14-68.68L572.14-68.68L572.14-68.68Q576.03-68.75 579.30-68.95L579.30-68.95L579.30-68.95Q582.57-69.14 585.01-69.48L585.01-69.48L585.01-69.48Q587.45-69.82 588.57-70.31L588.57-70.31L588.57-70.31Q588.62-69.29 589.36-68.14L589.36-68.14L589.36-68.14Q590.09-66.99 591.28-65.84L591.28-65.84L591.28-65.84Q592.48-64.70 593.95-63.62L593.95-63.62L593.95-63.62Q595.41-62.55 596.92-61.69L596.92-61.69L596.92-61.69Q598.44-60.84 599.85-60.33L599.85-60.33L599.85-60.33Q601.27-59.81 602.34-59.77L602.34-59.77L602.34-59.77Q602.00-59.13 601.73-57.93L601.73-57.93L601.73-57.93Q601.46-56.74 601.27-55.22L601.27-55.22L601.27-55.22Q601.07-53.71 600.98-52.10L600.98-52.10L600.98-52.10Q600.88-50.49 600.88-49.02L600.88-49.02L600.88-49.02Q600.88-45.90 601.20-43.19L601.20-43.19L601.20-43.19Q601.51-40.48 602.34-39.06L602.34-39.06L602.34-39.06Q600.29-38.67 598.24-37.50L598.24-37.50L598.24-37.50Q596.19-36.33 594.38-34.72L594.38-34.72L594.38-34.72Q597.02-33.15 600.10-32.15L600.10-32.15L600.10-32.15Q603.17-31.15 605.86-30.76L605.86-30.76L605.86-30.76Q605.47-30.13 605.18-29.10L605.18-29.10L605.18-29.10Q604.88-28.08 604.71-26.81L604.71-26.81L604.71-26.81Q604.54-25.54 604.47-24.12L604.47-24.12L604.47-24.12Q604.39-22.71 604.39-21.29L604.39-21.29L604.39-21.29Q604.39-19.82 604.47-18.19L604.47-18.19L604.47-18.19Q604.54-16.55 604.74-15.06L604.74-15.06L604.74-15.06Q604.93-13.57 605.20-12.35L605.20-12.35L605.20-12.35Q605.47-11.13 605.86-10.55L605.86-10.55L605.86-10.55Q604.49-10.50 602.71-10.01L602.71-10.01L602.71-10.01Q600.93-9.52 599.05-8.72L599.05-8.72L599.05-8.72Q597.17-7.91 595.34-6.88L595.34-6.88L595.34-6.88Q593.51-5.86 591.99-4.69L591.99-4.69L591.99-4.69Q590.48-3.52 589.45-2.32L589.45-2.32L589.45-2.32Q588.43-1.12 588.18 0L588.18 0L588.18 0Q587.60-0.29 585.30-0.51L585.30-0.51L585.30-0.51Q583.01-0.73 579.66-0.90L579.66-0.90L579.66-0.90Q576.32-1.07 572.29-1.15L572.29-1.15L572.29-1.15Q568.26-1.22 564.21-1.22L564.21-1.22L564.21-1.22Q562.65-1.22 560.11-1.17L560.11-1.17L560.11-1.17Q557.57-1.12 554.64-1.03L554.64-1.03L554.64-1.03Q551.71-0.93 548.71-0.83L548.71-0.83L548.71-0.83Q545.70-0.73 543.19-0.59L543.19-0.59L543.19-0.59Q540.67-0.44 538.92-0.29L538.92-0.29L538.92-0.29Q537.16-0.15 536.77 0ZM565.33-41.21L565.33-41.21L565.33-41.21Q566.02-40.97 566.72-40.80L566.72-40.80L566.72-40.80Q567.43-40.63 568.33-40.50L568.33-40.50L568.33-40.50Q569.24-40.38 570.41-40.33L570.41-40.33L570.41-40.33Q571.58-40.28 573.14-40.28L573.14-40.28L573.14-40.28Q575.59-40.28 577.17-41.02L577.17-41.02L577.17-41.02Q578.76-41.75 579.66-43.02L579.66-43.02L579.66-43.02Q580.57-44.29 580.93-46.02L580.93-46.02L580.93-46.02Q581.30-47.75 581.30-49.76L581.30-49.76L581.30-49.76Q581.30-51.46 581.10-53.05L581.10-53.05L581.10-53.05Q580.91-54.64 580.13-55.88L580.13-55.88L580.13-55.88Q579.35-57.13 577.83-57.86L577.83-57.86L577.83-57.86Q576.32-58.59 573.63-58.59L573.63-58.59L573.63-58.59Q571.44-58.59 569.24-58.30L569.24-58.30L569.24-58.30Q567.04-58.01 565.23-57.23L565.23-57.23L565.23-57.23Q565.04-55.86 564.97-54.22L564.97-54.22L564.97-54.22Q564.89-52.59 564.89-50.88L564.89-50.88L564.89-50.88Q564.89-48.29 565.01-45.78L565.01-45.78L565.01-45.78Q565.14-43.26 565.33-41.21ZM565.23-11.91L565.23-11.91L565.23-11.91Q567.58-11.28 570.09-11.01L570.09-11.01L570.09-11.01Q572.61-10.74 575.59-10.74L575.59-10.74L575.59-10.74Q578.37-10.74 580.20-11.55L580.20-11.55L580.20-11.55Q582.03-12.35 583.15-13.72L583.15-13.72L583.15-13.72Q584.28-15.09 584.74-16.94L584.74-16.94L584.74-16.94Q585.21-18.80 585.21-20.95L585.21-20.95L585.21-20.95Q585.21-22.85 584.94-24.61L584.94-24.61L584.94-24.61Q584.67-26.37 583.72-27.73L583.72-27.73L583.72-27.73Q582.76-29.10 580.96-29.93L580.96-29.93L580.96-29.93Q579.15-30.76 576.07-30.76L576.07-30.76L576.07-30.76Q572.02-30.76 569.53-30.44L569.53-30.44L569.53-30.44Q567.04-30.13 565.28-29.35L565.28-29.35L565.28-29.35Q565.04-27.69 564.94-25.68L564.94-25.68L564.94-25.68Q564.84-23.68 564.84-21.48L564.84-21.48L564.84-21.48Q564.84-18.95 564.97-16.48L564.97-16.48L564.97-16.48Q565.09-14.01 565.23-11.91Z" fill="#000000"></path></g></g><style>text {
  font-size: 64px;
  font-family: Arial Black;
  dominant-baseline: central;
  text-anchor: middle;
}</style></svg>