<svg width="771.2724365234375px" height="174.82750244140624px" xmlns="http://www.w3.org/2000/svg" viewBox="-135.63621826171874 -12.41375122070312 771.2724365234375 174.82750244140624" style="background: rgba(0, 0, 0, 0);" preserveAspectRatio="xMidYMid"><defs><filter id="editing-extrude-glow"><feFlood flood-color="#000000" result="flood-1"></feFlood><feMorphology operator="erode" radius="1" in="SourceAlpha" result="erode"></feMorphology><feComposite operator="in" in="flood-1" in2="erode" result="comp1"></feComposite><feConvolveMatrix order="3,3" divisor="1" in="comp1" result="convolve" kernelMatrix="0 0 0 1 1 1 0 0 0"></feConvolveMatrix><feOffset dx="-3" dy="0" in="convolve" result="extrude"></feOffset><feComposite operator="in" in="flood-1" in2="extrude" result="comp-extrude"></feComposite><feFlood flood-color="#000000" result="flood-2"></feFlood><feComposite operator="in" in="flood-2" in2="SourceAlpha" result="comp2"></feComposite><feMorphology operator="dilate" radius="1" in="comp2" result="dilate"></feMorphology><feOffset dx="-4.5" dy="0" in="dilate" result="offset"></feOffset><feGaussianBlur in="offset" stdDeviation="5.8" result="blur"></feGaussianBlur><feComponentTransfer in="blur" result="shadow"><feFuncA type="linear" slope="0.8" intercept="-0.2"></feFuncA></feComponentTransfer><feMerge><feMergeNode in="shadow"></feMergeNode><feMergeNode in="comp-extrude"></feMergeNode><feMergeNode in="SourceGraphic"></feMergeNode></feMerge></filter></defs><g filter="url(#editing-extrude-glow)"><g transform="translate(-27.88500738143921, 107.88000106811523)"><path d="M4.44 0L4.44 0L4.44 0Q4.71-1.11 4.91-2.69L4.91-2.69L4.91-2.69Q5.11-4.27 5.11-5.95L5.11-5.95L5.11-5.95Q5.11-7.51 4.89-9.00L4.89-9.00L4.89-9.00Q4.67-10.49 4.44-11.55L4.44-11.55L4.44-11.55Q6.44-11.55 7.95-11.86L7.95-11.86L7.95-11.86Q9.46-12.17 10.49-12.91L10.49-12.91L10.49-12.91Q11.51-13.64 12.02-14.91L12.02-14.91L12.02-14.91Q12.53-16.17 12.53-18.08L12.53-18.08L12.53-18.08Q12.53-22.13 12.33-24.84L12.33-24.84L12.33-24.84Q12.13-27.55 11.75-29.22L11.75-29.22L11.75-29.22Q11.38-30.88 10.80-31.66L10.80-31.66L10.80-31.66Q10.22-32.44 9.46-32.66L9.46-32.66L9.46-32.66Q10.26-32.93 10.84-33.61L10.84-33.61L10.84-33.61Q11.42-34.30 11.80-35.86L11.80-35.86L11.80-35.86Q12.17-37.41 12.35-40.01L12.35-40.01L12.35-40.01Q12.53-42.61 12.53-46.70L12.53-46.70L12.53-46.70Q12.53-48.48 11.95-49.59L11.95-49.59L11.95-49.59Q11.38-50.70 10.40-51.34L10.40-51.34L10.40-51.34Q9.42-51.99 8.11-52.21L8.11-52.21L8.11-52.21Q6.80-52.43 5.29-52.43L5.29-52.43L4.44-52.43L4.44-52.43Q4.67-53.50 4.89-54.90L4.89-54.90L4.89-54.90Q5.11-56.30 5.11-57.85L5.11-57.85L5.11-57.85Q5.11-59.50 4.91-61.19L4.91-61.19L4.91-61.19Q4.71-62.87 4.44-63.98L4.44-63.98L4.44-63.98Q6.18-63.36 9.38-62.90L9.38-62.90L9.38-62.90Q12.57-62.43 17.68-62.43L17.68-62.43L17.68-62.43Q21.02-62.43 24.17-62.81L24.17-62.81L24.17-62.81Q27.33-63.18 29.99-63.67L29.99-63.67L29.99-63.67Q29.99-61.54 30.88-58.83L30.88-58.83L30.88-58.83Q31.77-56.12 33.28-53.14L33.28-53.14L33.28-53.14Q34.79-50.17 36.72-47.08L36.72-47.08L36.72-47.08Q38.66-43.99 40.77-41.10L40.77-41.10L40.77-41.10Q42.88-38.21 44.99-35.66L44.99-35.66L44.99-35.66Q47.10-33.10 48.94-31.21L48.94-31.21L48.94-31.21Q50.79-29.33 52.17-28.22L52.17-28.22L52.17-28.22Q53.54-27.10 54.21-27.10L54.21-27.10L54.30-27.10L54.30-27.10Q54.34-27.10 54.41-27.08L54.41-27.08L54.41-27.08Q54.48-27.06 54.56-27.06L54.56-27.06L54.56-27.06Q54.92-28.39 55.12-30.44L55.12-30.44L55.12-30.44Q55.32-32.48 55.43-35.06L55.43-35.06L55.43-35.06Q55.54-37.64 55.59-40.59L55.59-40.59L55.59-40.59Q55.63-43.54 55.63-46.70L55.63-46.70L55.63-46.70Q55.63-48.48 55.05-49.59L55.05-49.59L55.05-49.59Q54.48-50.70 53.50-51.34L53.50-51.34L53.50-51.34Q52.52-51.99 51.21-52.21L51.21-52.21L51.21-52.21Q49.90-52.43 48.39-52.43L48.39-52.43L47.54-52.43L47.54-52.43Q47.77-53.50 47.99-54.90L47.99-54.90L47.99-54.90Q48.21-56.30 48.21-57.85L48.21-57.85L48.21-57.85Q48.21-59.50 48.01-61.19L48.01-61.19L48.01-61.19Q47.81-62.87 47.54-63.98L47.54-63.98L47.54-63.98Q48.39-63.67 50.21-63.41L50.21-63.41L50.21-63.41Q52.03-63.14 54.39-62.92L54.39-62.92L54.39-62.92Q56.74-62.70 59.39-62.56L59.39-62.56L59.39-62.56Q62.03-62.43 64.56-62.43L64.56-62.43L64.56-62.43Q67.14-62.43 69.78-62.56L69.78-62.56L69.78-62.56Q72.43-62.70 74.76-62.92L74.76-62.92L74.76-62.92Q77.09-63.14 78.87-63.41L78.87-63.41L78.87-63.41Q80.65-63.67 81.54-63.98L81.54-63.98L81.54-63.98Q81.27-62.87 81.07-61.19L81.07-61.19L81.07-61.19Q80.87-59.50 80.87-57.85L80.87-57.85L80.87-57.85Q80.87-56.30 81.09-54.90L81.09-54.90L81.09-54.90Q81.31-53.50 81.54-52.43L81.54-52.43L80.60-52.43L80.60-52.43Q79.00-52.43 77.67-52.21L77.67-52.21L77.67-52.21Q76.34-51.99 75.40-51.34L75.40-51.34L75.40-51.34Q74.47-50.70 73.96-49.59L73.96-49.59L73.96-49.59Q73.45-48.48 73.45-46.70L73.45-46.70L73.45-46.70Q73.45-42.61 73.69-39.95L73.69-39.95L73.69-39.95Q73.94-37.28 74.40-35.68L74.40-35.68L74.40-35.68Q74.87-34.08 75.51-33.41L75.51-33.41L75.51-33.41Q76.16-32.75 76.96-32.66L76.96-32.66L76.96-32.66Q76.20-32.26 75.63-31.41L75.63-31.41L75.63-31.41Q75.05-30.57 74.67-28.75L74.67-28.75L74.67-28.75Q74.29-26.93 74.09-23.91L74.09-23.91L74.09-23.91Q73.89-20.88 73.89-16.13L73.89-16.13L73.89-16.13Q73.89-12.93 74.16-10.29L74.16-10.29L74.16-10.29Q74.43-7.64 74.80-5.62L74.80-5.62L74.80-5.62Q75.18-3.60 75.63-2.20L75.63-2.20L75.63-2.20Q76.07-0.80 76.43 0L76.43 0L76.43 0Q75.31-0.36 73.94-0.58L73.94-0.58L73.94-0.58Q72.56-0.80 71.14-0.91L71.14-0.91L71.14-0.91Q69.72-1.02 68.38-1.07L68.38-1.07L68.38-1.07Q67.05-1.11 66.07-1.11L66.07-1.11L66.07-1.11Q65.01-1.11 63.67-1.07L63.67-1.07L63.67-1.07Q62.34-1.02 60.94-0.91L60.94-0.91L60.94-0.91Q59.54-0.80 58.12-0.58L58.12-0.58L58.12-0.58Q56.70-0.36 55.50 0L55.50 0L55.50 0Q55.50-2.22 54.23-5.29L54.23-5.29L54.23-5.29Q52.96-8.35 50.90-11.73L50.90-11.73L50.90-11.73Q48.83-15.11 46.23-18.57L46.23-18.57L46.23-18.57Q43.63-22.04 40.99-25.13L40.99-25.13L40.99-25.13Q38.35-28.22 35.90-30.68L35.90-30.68L35.90-30.68Q33.46-33.15 31.73-34.52L31.73-34.52L31.73-34.52Q30.88-32.53 30.61-28.26L30.61-28.26L30.61-28.26Q30.35-23.99 30.35-18.08L30.35-18.08L30.35-18.08Q30.35-16.17 30.77-14.91L30.77-14.91L30.77-14.91Q31.19-13.64 32.17-12.91L32.17-12.91L32.17-12.91Q33.15-12.17 34.68-11.86L34.68-11.86L34.68-11.86Q36.21-11.55 38.44-11.55L38.44-11.55L38.44-11.55Q38.21-10.49 37.99-9.00L37.99-9.00L37.99-9.00Q37.77-7.51 37.77-5.95L37.77-5.95L37.77-5.95Q37.77-4.27 37.97-2.69L37.97-2.69L37.97-2.69Q38.17-1.11 38.44 0L38.44 0L38.44 0Q37.15-0.27 35.19-0.47L35.19-0.47L35.19-0.47Q33.24-0.67 30.93-0.82L30.93-0.82L30.93-0.82Q28.62-0.98 26.17-1.04L26.17-1.04L26.17-1.04Q23.73-1.11 21.46-1.11L21.46-1.11L21.46-1.11Q19.20-1.11 16.73-1.04L16.73-1.04L16.73-1.04Q14.26-0.98 11.95-0.82L11.95-0.82L11.95-0.82Q9.64-0.67 7.66-0.47L7.66-0.47L7.66-0.47Q5.69-0.27 4.44 0ZM87.76 0L87.76 0L87.76 0Q88.02-1.11 88.22-2.69L88.22-2.69L88.22-2.69Q88.42-4.27 88.42-5.95L88.42-5.95L88.42-5.95Q88.42-7.51 88.20-9.00L88.20-9.00L88.20-9.00Q87.98-10.49 87.76-11.55L87.76-11.55L87.76-11.55Q89.76-11.55 91.27-11.86L91.27-11.86L91.27-11.86Q92.78-12.17 93.80-12.91L93.80-12.91L93.80-12.91Q94.82-13.64 95.33-14.91L95.33-14.91L95.33-14.91Q95.84-16.17 95.84-18.08L95.84-18.08L95.84-18.08Q95.84-21.82 95.64-24.48L95.64-24.48L95.64-24.48Q95.44-27.15 95.07-28.88L95.07-28.88L95.07-28.88Q94.69-30.61 94.11-31.53L94.11-31.53L94.11-31.53Q93.53-32.44 92.78-32.66L92.78-32.66L92.78-32.66Q93.58-32.93 94.15-33.50L94.15-33.50L94.15-33.50Q94.73-34.08 95.11-35.48L95.11-35.48L95.11-35.48Q95.49-36.88 95.67-39.35L95.67-39.35L95.67-39.35Q95.84-41.81 95.84-45.90L95.84-45.90L95.84-45.90Q95.84-47.81 95.33-49.08L95.33-49.08L95.33-49.08Q94.82-50.34 93.80-51.08L93.80-51.08L93.80-51.08Q92.78-51.81 91.27-52.12L91.27-52.12L91.27-52.12Q89.76-52.43 87.76-52.43L87.76-52.43L87.76-52.43Q87.98-53.50 88.20-54.99L88.20-54.99L88.20-54.99Q88.42-56.48 88.42-58.03L88.42-58.03L88.42-58.03Q88.42-59.72 88.22-61.30L88.22-61.30L88.22-61.30Q88.02-62.87 87.76-63.98L87.76-63.98L87.76-63.98Q88.65-63.76 90.82-63.56L90.82-63.56L90.82-63.56Q93.00-63.36 95.89-63.18L95.89-63.18L95.89-63.18Q98.78-63.01 102.06-62.87L102.06-62.87L102.06-62.87Q105.35-62.74 108.48-62.63L108.48-62.63L108.48-62.63Q111.62-62.52 114.26-62.47L114.26-62.47L114.26-62.47Q116.90-62.43 118.50-62.43L118.50-62.43L118.50-62.43Q120.10-62.43 122.59-62.47L122.59-62.47L122.59-62.47Q125.08-62.52 127.95-62.63L127.95-62.63L127.95-62.63Q130.81-62.74 133.81-62.87L133.81-62.87L133.81-62.87Q136.81-63.01 139.45-63.18L139.45-63.18L139.45-63.18Q142.10-63.36 144.12-63.56L144.12-63.56L144.12-63.56Q146.14-63.76 147.03-63.98L147.03-63.98L147.03-63.98Q146.68-62.12 146.30-59.25L146.30-59.25L146.30-59.25Q145.92-56.39 145.92-53.19L145.92-53.19L145.92-53.19Q145.92-51.32 146.05-49.52L146.05-49.52L146.05-49.52Q146.19-47.72 146.34-46.23L146.34-46.23L146.34-46.23Q146.50-44.74 146.70-43.63L146.70-43.63L146.70-43.63Q146.90-42.52 147.03-41.99L147.03-41.99L147.03-41.99Q146.36-42.26 145.36-42.46L145.36-42.46L145.36-42.46Q144.36-42.66 143.21-42.81L143.21-42.81L143.21-42.81Q142.05-42.97 140.81-43.03L140.81-43.03L140.81-43.03Q139.57-43.10 138.41-43.10L138.41-43.10L138.41-43.10Q136.37-43.10 134.32-42.86L134.32-42.86L134.32-42.86Q132.28-42.61 130.41-41.99L130.41-41.99L130.41-41.99Q130.72-42.92 130.92-44.26L130.92-44.26L130.92-44.26Q131.12-45.59 131.12-46.97L131.12-46.97L131.12-46.97Q131.12-49.23 130.35-50.59L130.35-50.59L130.35-50.59Q129.57-51.94 128.37-52.65L128.37-52.65L128.37-52.65Q127.17-53.36 125.75-53.56L125.75-53.56L125.75-53.56Q124.33-53.76 123.04-53.76L123.04-53.76L123.04-53.76Q122.01-53.76 120.88-53.70L120.88-53.70L120.88-53.70Q119.75-53.63 118.57-53.39L118.57-53.39L118.57-53.39Q117.39-53.14 116.24-52.72L116.24-52.72L116.24-52.72Q115.08-52.30 114.11-51.59L114.11-51.59L114.11-51.59Q113.93-50.57 113.79-49.23L113.79-49.23L113.79-49.23Q113.66-47.90 113.66-45.90L113.66-45.90L113.66-45.90Q113.66-42.92 113.77-41.26L113.77-41.26L113.77-41.26Q113.88-39.59 114.06-38.70L114.06-38.70L114.06-38.70Q115.26-38.17 116.86-37.95L116.86-37.95L116.86-37.95Q118.46-37.72 120.15-37.72L120.15-37.72L120.15-37.72Q122.68-37.72 124.95-38.12L124.95-38.12L124.95-38.12Q127.21-38.52 128.24-39.06L128.24-39.06L128.24-39.06Q127.88-38.08 127.72-36.35L127.72-36.35L127.72-36.35Q127.57-34.61 127.57-32.70L127.57-32.70L127.57-32.70Q127.57-31.64 127.61-30.59L127.61-30.59L127.61-30.59Q127.66-29.55 127.77-28.68L127.77-28.68L127.77-28.68Q127.88-27.82 127.99-27.17L127.99-27.17L127.99-27.17Q128.10-26.53 128.24-26.22L128.24-26.22L128.24-26.22Q127.84-26.44 126.95-26.68L126.95-26.68L126.95-26.68Q126.06-26.93 124.88-27.15L124.88-27.15L124.88-27.15Q123.70-27.37 122.30-27.53L122.30-27.53L122.30-27.53Q120.90-27.68 119.44-27.68L119.44-27.68L119.44-27.68Q117.93-27.68 116.55-27.50L116.55-27.50L116.55-27.50Q115.17-27.33 114.06-26.84L114.06-26.84L114.06-26.84Q113.97-26.30 113.91-25.62L113.91-25.62L113.91-25.62Q113.84-24.93 113.77-23.88L113.77-23.88L113.77-23.88Q113.71-22.84 113.68-21.42L113.68-21.42L113.68-21.42Q113.66-20.00 113.66-18.08L113.66-18.08L113.66-18.08Q113.66-15.69 113.84-14.20L113.84-14.20L113.84-14.20Q114.02-12.71 114.24-11.64L114.24-11.64L114.24-11.64Q115.31-11.06 116.50-10.69L116.50-10.69L116.50-10.69Q117.70-10.31 118.93-10.11L118.93-10.11L118.93-10.11Q120.15-9.91 121.30-9.84L121.30-9.84L121.30-9.84Q122.46-9.78 123.48-9.78L123.48-9.78L123.48-9.78Q124.77-9.78 126.12-10.11L126.12-10.11L126.12-10.11Q127.48-10.44 128.59-11.35L128.59-11.35L128.59-11.35Q129.70-12.26 130.41-13.89L130.41-13.89L130.41-13.89Q131.12-15.51 131.12-18.04L131.12-18.04L131.12-18.04Q131.12-19.64 130.92-21.19L130.92-21.19L130.92-21.19Q130.72-22.75 130.41-23.77L130.41-23.77L130.41-23.77Q132.28-23.15 134.32-22.91L134.32-22.91L134.32-22.91Q136.37-22.66 138.41-22.66L138.41-22.66L138.41-22.66Q139.57-22.66 140.81-22.73L140.81-22.73L140.81-22.73Q142.05-22.79 143.21-22.95L143.21-22.95L143.21-22.95Q144.36-23.11 145.36-23.31L145.36-23.31L145.36-23.31Q146.36-23.51 147.03-23.77L147.03-23.77L147.03-23.77Q146.90-23.19 146.70-21.99L146.70-21.99L146.70-21.99Q146.50-20.79 146.34-19.17L146.34-19.17L146.34-19.17Q146.19-17.55 146.05-15.62L146.05-15.62L146.05-15.62Q145.92-13.69 145.92-11.69L145.92-11.69L145.92-11.69Q145.92-9.95 146.03-8.29L146.03-8.29L146.03-8.29Q146.14-6.62 146.30-5.11L146.30-5.11L146.30-5.11Q146.45-3.60 146.65-2.29L146.65-2.29L146.65-2.29Q146.85-0.98 147.03 0L147.03 0L147.03 0Q146.14-0.18 144.12-0.33L144.12-0.33L144.12-0.33Q142.10-0.49 139.45-0.60L139.45-0.60L139.45-0.60Q136.81-0.71 133.81-0.82L133.81-0.82L133.81-0.82Q130.81-0.93 127.95-1.00L127.95-1.00L127.95-1.00Q125.08-1.07 122.59-1.09L122.59-1.09L122.59-1.09Q120.10-1.11 118.50-1.11L118.50-1.11L118.50-1.11Q116.90-1.11 114.26-1.09L114.26-1.09L114.26-1.09Q111.62-1.07 108.48-1.00L108.48-1.00L108.48-1.00Q105.35-0.93 102.06-0.82L102.06-0.82L102.06-0.82Q98.78-0.71 95.89-0.60L95.89-0.60L95.89-0.60Q93.00-0.49 90.82-0.33L90.82-0.33L90.82-0.33Q88.65-0.18 87.76 0ZM158.01 0L158.01 0L158.01 0Q158.09-0.36 158.25-1.29L158.25-1.29L158.25-1.29Q158.41-2.22 158.54-3.49L158.54-3.49L158.54-3.49Q158.67-4.75 158.78-6.20L158.78-6.20L158.78-6.20Q158.89-7.64 158.89-9.02L158.89-9.02L158.89-9.02Q158.89-12.71 158.61-15.51L158.61-15.51L158.61-15.51Q158.32-18.31 158.01-19.33L158.01-19.33L158.01-19.33Q160.54-18.93 162.76-18.80L162.76-18.80L162.76-18.80Q164.98-18.66 167.11-18.66L167.11-18.66L167.11-18.66Q171.02-18.66 174.05-19.33L174.05-19.33L174.05-19.33Q174.05-17.37 174.98-15.62L174.98-15.62L174.98-15.62Q175.91-13.86 177.58-12.57L177.58-12.57L177.58-12.57Q179.25-11.29 181.58-10.53L181.58-10.53L181.58-10.53Q183.91-9.78 186.75-9.78L186.75-9.78L186.75-9.78Q188.67-9.78 190.62-9.98L190.62-9.98L190.62-9.98Q192.58-10.18 194.15-10.84L194.15-10.84L194.15-10.84Q195.73-11.51 196.71-12.75L196.71-12.75L196.71-12.75Q197.69-14.00 197.69-16.08L197.69-16.08L197.69-16.08Q197.69-17.60 196.77-19.22L196.77-19.22L196.77-19.22Q195.86-20.84 193.93-22.13L193.93-22.13L193.93-22.13Q192.00-23.42 188.95-24.26L188.95-24.26L188.95-24.26Q185.91-25.10 181.64-25.10L181.64-25.10L181.64-25.10Q178.00-25.10 174.42-24.91L174.42-24.91L174.42-24.91Q170.85-24.71 166.67-23.64L166.67-23.64L166.67-23.64Q166.58-24.97 165.72-26.57L165.72-26.57L165.72-26.57Q164.85-28.17 163.49-29.57L163.49-29.57L163.49-29.57Q162.14-30.97 160.38-31.93L160.38-31.93L160.38-31.93Q158.63-32.88 156.81-32.88L156.81-32.88L156.36-32.88L156.36-32.88Q156.90-33.10 157.29-33.90L157.29-33.90L157.29-33.90Q157.69-34.70 157.94-35.86L157.94-35.86L157.94-35.86Q158.18-37.01 158.32-38.41L158.32-38.41L158.32-38.41Q158.45-39.81 158.45-41.28L158.45-41.28L158.45-41.28Q158.45-44.97 158.07-47.90L158.07-47.90L158.07-47.90Q157.69-50.83 156.98-52.08L156.98-52.08L157.29-52.08L157.29-52.08Q158.58-52.08 160.14-52.74L160.14-52.74L160.14-52.74Q161.69-53.41 163.27-54.50L163.27-54.50L163.27-54.50Q164.85-55.59 166.36-56.94L166.36-56.94L166.36-56.94Q167.87-58.30 169.05-59.72L169.05-59.72L169.05-59.72Q170.23-61.14 170.98-62.50L170.98-62.50L170.98-62.50Q171.74-63.85 171.82-64.87L171.82-64.87L171.82-64.87Q172.49-64.47 173.49-64.05L173.49-64.05L173.49-64.05Q174.49-63.63 175.98-63.25L175.98-63.25L175.98-63.25Q177.47-62.87 179.51-62.65L179.51-62.65L179.51-62.65Q181.56-62.43 184.35-62.43L184.35-62.43L184.35-62.43Q186.00-62.43 187.84-62.61L187.84-62.61L187.84-62.61Q189.69-62.78 191.42-63.12L191.42-63.12L191.42-63.12Q193.15-63.45 194.66-63.90L194.66-63.90L194.66-63.90Q196.17-64.34 197.11-64.87L197.11-64.87L197.11-64.87Q197.46-63.50 198.31-62.05L198.31-62.05L198.31-62.05Q199.15-60.61 200.31-59.59L200.31-59.59L200.31-59.59Q201.46-60.56 202.00-61.81L202.00-61.81L202.00-61.81Q202.53-63.05 202.75-63.98L202.75-63.98L202.75-63.98Q203.42-63.58 204.75-63.34L204.75-63.34L204.75-63.34Q206.08-63.10 208.22-63.10L208.22-63.10L208.22-63.10Q211.46-63.10 214.26-63.98L214.26-63.98L214.26-63.98Q214.17-63.63 214.04-62.61L214.04-62.61L214.04-62.61Q213.90-61.58 213.77-60.25L213.77-60.25L213.77-60.25Q213.64-58.92 213.55-57.41L213.55-57.41L213.55-57.41Q213.46-55.90 213.46-54.52L213.46-54.52L213.46-54.52Q213.46-50.65 213.75-47.74L213.75-47.74L213.75-47.74Q214.04-44.83 214.26-43.77L214.26-43.77L214.26-43.77Q211.99-44.17 209.99-44.30L209.99-44.30L209.99-44.30Q207.99-44.43 205.99-44.43L205.99-44.43L205.99-44.43Q202.08-44.43 199.11-43.77L199.11-43.77L199.11-43.77Q199.11-45.81 198.17-47.63L198.17-47.63L198.17-47.63Q197.24-49.45 195.57-50.83L195.57-50.83L195.57-50.83Q193.91-52.21 191.58-52.99L191.58-52.99L191.58-52.99Q189.24-53.76 186.40-53.76L186.40-53.76L186.40-53.76Q184.44-53.76 182.51-53.48L182.51-53.48L182.51-53.48Q180.58-53.19 179.00-52.45L179.00-52.45L179.00-52.45Q177.42-51.72 176.45-50.52L176.45-50.52L176.45-50.52Q175.47-49.32 175.47-47.46L175.47-47.46L175.47-47.46Q175.47-45.90 176.25-44.43L176.25-44.43L176.25-44.43Q177.02-42.97 178.80-41.81L178.80-41.81L178.80-41.81Q180.58-40.66 183.49-39.95L183.49-39.95L183.49-39.95Q186.40-39.23 190.66-39.23L190.66-39.23L190.66-39.23Q192.44-39.23 194.53-39.26L194.53-39.26L194.53-39.26Q196.62-39.28 198.66-39.39L198.66-39.39L198.66-39.39Q200.71-39.50 202.53-39.72L202.53-39.72L202.53-39.72Q204.35-39.95 205.68-40.35L205.68-40.35L205.68-40.35Q205.82-39.01 206.79-37.32L206.79-37.32L206.79-37.32Q207.77-35.64 209.26-34.15L209.26-34.15L209.26-34.15Q210.75-32.66 212.61-31.66L212.61-31.66L212.61-31.66Q214.48-30.66 216.35-30.66L216.35-30.66L216.79-30.66L216.79-30.66Q216.26-30.44 215.86-29.64L215.86-29.64L215.86-29.64Q215.46-28.84 215.21-27.68L215.21-27.68L215.21-27.68Q214.97-26.53 214.84-25.13L214.84-25.13L214.84-25.13Q214.70-23.73 214.70-22.26L214.70-22.26L214.70-22.26Q214.70-20.44 214.79-18.75L214.79-18.75L214.79-18.75Q214.88-17.06 215.08-15.64L215.08-15.64L215.08-15.64Q215.28-14.22 215.55-13.13L215.55-13.13L215.55-13.13Q215.81-12.04 216.17-11.46L216.17-11.46L215.86-11.46L215.86-11.46Q214.57-11.46 213.01-10.84L213.01-10.84L213.01-10.84Q211.46-10.22 209.86-9.18L209.86-9.18L209.86-9.18Q208.26-8.13 206.75-6.82L206.75-6.82L206.75-6.82Q205.24-5.51 204.04-4.13L204.04-4.13L204.04-4.13Q202.84-2.75 202.11-1.44L202.11-1.44L202.11-1.44Q201.37-0.13 201.33 0.89L201.33 0.89L201.33 0.89Q200.66 0.49 199.66 0.13L199.66 0.13L199.66 0.13Q198.66-0.22 197.17-0.51L197.17-0.51L197.17-0.51Q195.69-0.80 193.64-0.96L193.64-0.96L193.64-0.96Q191.60-1.11 188.80-1.11L188.80-1.11L188.80-1.11Q187.15-1.11 185.44-1.00L185.44-1.00L185.44-1.00Q183.73-0.89 182.16-0.64L182.16-0.64L182.16-0.64Q180.58-0.40 179.22-0.02L179.22-0.02L179.22-0.02Q177.87 0.36 176.93 0.89L176.93 0.89L176.93 0.89Q176.53-0.49 175.71-1.78L175.71-1.78L175.71-1.78Q174.89-3.07 173.74-4.00L173.74-4.00L173.74-4.00Q172.54-3.11 172.02-2.02L172.02-2.02L172.02-2.02Q171.51-0.93 171.29 0L171.29 0L171.29 0Q170.94-0.18 170.16-0.38L170.16-0.38L170.16-0.38Q169.38-0.58 168.40-0.73L168.40-0.73L168.40-0.73Q167.43-0.89 166.31-1.00L166.31-1.00L166.31-1.00Q165.20-1.11 164.14-1.11L164.14-1.11L164.14-1.11Q162.40-1.11 160.76-0.80L160.76-0.80L160.76-0.80Q159.12-0.49 158.01 0ZM222.35 0L222.35 0L222.35 0Q222.61-1.11 222.81-2.69L222.81-2.69L222.81-2.69Q223.01-4.27 223.01-5.95L223.01-5.95L223.01-5.95Q223.01-7.51 222.79-9.00L222.79-9.00L222.79-9.00Q222.57-10.49 222.35-11.55L222.35-11.55L222.35-11.55Q224.57-11.55 226.10-11.86L226.10-11.86L226.10-11.86Q227.63-12.17 228.61-12.91L228.61-12.91L228.61-12.91Q229.59-13.64 230.01-14.91L230.01-14.91L230.01-14.91Q230.43-16.17 230.43-18.08L230.43-18.08L230.43-18.08Q230.43-21.82 230.23-24.48L230.23-24.48L230.23-24.48Q230.03-27.15 229.66-28.88L229.66-28.88L229.66-28.88Q229.28-30.61 228.70-31.53L228.70-31.53L228.70-31.53Q228.12-32.44 227.37-32.66L227.37-32.66L227.37-32.66Q228.17-32.93 228.74-33.61L228.74-33.61L228.74-33.61Q229.32-34.30 229.70-35.86L229.70-35.86L229.70-35.86Q230.08-37.41 230.25-40.01L230.25-40.01L230.25-40.01Q230.43-42.61 230.43-46.70L230.43-46.70L230.43-46.70Q230.43-48.48 229.92-49.59L229.92-49.59L229.92-49.59Q229.41-50.70 228.48-51.34L228.48-51.34L228.48-51.34Q227.54-51.99 226.21-52.21L226.21-52.21L226.21-52.21Q224.88-52.43 223.23-52.43L223.23-52.43L222.35-52.43L222.35-52.43Q222.57-53.50 222.79-54.90L222.79-54.90L222.79-54.90Q223.01-56.30 223.01-57.85L223.01-57.85L223.01-57.85Q223.01-59.50 222.81-61.19L222.81-61.19L222.81-61.19Q222.61-62.87 222.35-63.98L222.35-63.98L222.35-63.98Q223.19-63.67 224.99-63.41L224.99-63.41L224.99-63.41Q226.79-63.14 229.12-62.92L229.12-62.92L229.12-62.92Q231.45-62.70 234.12-62.56L234.12-62.56L234.12-62.56Q236.79-62.43 239.32-62.43L239.32-62.43L239.32-62.43Q241.85-62.43 244.50-62.56L244.50-62.56L244.50-62.56Q247.14-62.70 249.47-62.92L249.47-62.92L249.47-62.92Q251.81-63.14 253.63-63.41L253.63-63.41L253.63-63.41Q255.45-63.67 256.34-63.98L256.34-63.98L256.34-63.98Q256.07-62.87 255.87-61.19L255.87-61.19L255.87-61.19Q255.67-59.50 255.67-57.85L255.67-57.85L255.67-57.85Q255.67-56.30 255.89-54.90L255.89-54.90L255.89-54.90Q256.12-53.50 256.34-52.43L256.34-52.43L255.49-52.43L255.49-52.43Q253.98-52.43 252.67-52.21L252.67-52.21L252.67-52.21Q251.36-51.99 250.38-51.34L250.38-51.34L250.38-51.34Q249.41-50.70 248.83-49.59L248.83-49.59L248.83-49.59Q248.25-48.48 248.25-46.70L248.25-46.70L248.25-46.70Q248.25-43.63 248.34-41.50L248.34-41.50L248.34-41.50Q248.43-39.37 248.65-37.81L248.65-37.81L248.65-37.81Q251.18-37.32 254.43-37.10L254.43-37.10L254.43-37.10Q257.67-36.88 261.14-36.88L261.14-36.88L261.14-36.88Q264.60-36.88 267.82-37.12L267.82-37.12L267.82-37.12Q271.04-37.37 273.58-37.86L273.58-37.86L273.58-37.86Q273.80-39.41 273.89-41.57L273.89-41.57L273.89-41.57Q273.98-43.72 273.98-46.70L273.98-46.70L273.98-46.70Q273.98-48.48 273.47-49.59L273.47-49.59L273.47-49.59Q272.96-50.70 272.02-51.34L272.02-51.34L272.02-51.34Q271.09-51.99 269.76-52.21L269.76-52.21L269.76-52.21Q268.42-52.43 266.78-52.43L266.78-52.43L265.89-52.43L265.89-52.43Q266.11-53.50 266.33-54.90L266.33-54.90L266.33-54.90Q266.56-56.30 266.56-57.85L266.56-57.85L266.56-57.85Q266.56-59.50 266.36-61.19L266.36-61.19L266.36-61.19Q266.16-62.87 265.89-63.98L265.89-63.98L265.89-63.98Q266.73-63.67 268.53-63.41L268.53-63.41L268.53-63.41Q270.33-63.14 272.67-62.92L272.67-62.92L272.67-62.92Q275.00-62.70 277.67-62.56L277.67-62.56L277.67-62.56Q280.33-62.43 282.86-62.43L282.86-62.43L282.86-62.43Q285.40-62.43 288.04-62.56L288.04-62.56L288.04-62.56Q290.68-62.70 293.02-62.92L293.02-62.92L293.02-62.92Q295.35-63.14 297.17-63.41L297.17-63.41L297.17-63.41Q298.99-63.67 299.88-63.98L299.88-63.98L299.88-63.98Q299.62-62.87 299.42-61.19L299.42-61.19L299.42-61.19Q299.22-59.50 299.22-57.85L299.22-57.85L299.22-57.85Q299.22-56.30 299.44-54.90L299.44-54.90L299.44-54.90Q299.66-53.50 299.88-52.43L299.88-52.43L299.04-52.43L299.04-52.43Q297.53-52.43 296.22-52.21L296.22-52.21L296.22-52.21Q294.91-51.99 293.93-51.34L293.93-51.34L293.93-51.34Q292.95-50.70 292.37-49.59L292.37-49.59L292.37-49.59Q291.80-48.48 291.80-46.70L291.80-46.70L291.80-46.70Q291.80-42.61 291.97-40.01L291.97-40.01L291.97-40.01Q292.15-37.41 292.53-35.86L292.53-35.86L292.53-35.86Q292.91-34.30 293.48-33.61L293.48-33.61L293.48-33.61Q294.06-32.93 294.86-32.66L294.86-32.66L294.86-32.66Q294.11-32.44 293.53-31.53L293.53-31.53L293.53-31.53Q292.95-30.61 292.57-28.88L292.57-28.88L292.57-28.88Q292.20-27.15 292.00-24.48L292.00-24.48L292.00-24.48Q291.80-21.82 291.80-18.08L291.80-18.08L291.80-18.08Q291.80-16.17 292.31-14.91L292.31-14.91L292.31-14.91Q292.82-13.64 293.84-12.91L293.84-12.91L293.84-12.91Q294.86-12.17 296.37-11.86L296.37-11.86L296.37-11.86Q297.88-11.55 299.88-11.55L299.88-11.55L299.88-11.55Q299.66-10.49 299.44-9.00L299.44-9.00L299.44-9.00Q299.22-7.51 299.22-5.95L299.22-5.95L299.22-5.95Q299.22-4.27 299.42-2.69L299.42-2.69L299.42-2.69Q299.62-1.11 299.88 0L299.88 0L299.88 0Q298.59-0.27 296.64-0.47L296.64-0.47L296.64-0.47Q294.68-0.67 292.37-0.82L292.37-0.82L292.37-0.82Q290.06-0.98 287.60-1.04L287.60-1.04L287.60-1.04Q285.13-1.11 282.86-1.11L282.86-1.11L282.86-1.11Q280.60-1.11 278.13-1.04L278.13-1.04L278.13-1.04Q275.67-0.98 273.36-0.82L273.36-0.82L273.36-0.82Q271.04-0.67 269.09-0.47L269.09-0.47L269.09-0.47Q267.13-0.27 265.89 0L265.89 0L265.89 0Q266.16-1.11 266.36-2.69L266.36-2.69L266.36-2.69Q266.56-4.27 266.56-5.95L266.56-5.95L266.56-5.95Q266.56-7.51 266.33-9.00L266.33-9.00L266.33-9.00Q266.11-10.49 265.89-11.55L265.89-11.55L265.89-11.55Q268.11-11.55 269.65-11.86L269.65-11.86L269.65-11.86Q271.18-12.17 272.16-12.91L272.16-12.91L272.16-12.91Q273.13-13.64 273.56-14.91L273.56-14.91L273.56-14.91Q273.98-16.17 273.98-18.08L273.98-18.08L273.98-18.08Q273.98-23.37 273.58-26.66L273.58-26.66L273.58-26.66Q271.04-27.19 267.85-27.48L267.85-27.48L267.85-27.48Q264.65-27.77 261.14-27.77L261.14-27.77L261.14-27.77Q257.80-27.77 254.52-27.50L254.52-27.50L254.52-27.50Q251.23-27.24 248.65-26.75L248.65-26.75L248.65-26.75Q248.25-23.46 248.25-18.08L248.25-18.08L248.25-18.08Q248.25-16.17 248.76-14.91L248.76-14.91L248.76-14.91Q249.27-13.64 250.29-12.91L250.29-12.91L250.29-12.91Q251.32-12.17 252.83-11.86L252.83-11.86L252.83-11.86Q254.34-11.55 256.34-11.55L256.34-11.55L256.34-11.55Q256.12-10.49 255.89-9.00L255.89-9.00L255.89-9.00Q255.67-7.51 255.67-5.95L255.67-5.95L255.67-5.95Q255.67-4.27 255.87-2.69L255.87-2.69L255.87-2.69Q256.07-1.11 256.34 0L256.34 0L256.34 0Q255.05-0.27 253.09-0.47L253.09-0.47L253.09-0.47Q251.14-0.67 248.83-0.82L248.83-0.82L248.83-0.82Q246.52-0.98 244.05-1.04L244.05-1.04L244.05-1.04Q241.59-1.11 239.32-1.11L239.32-1.11L239.32-1.11Q237.05-1.11 234.59-1.04L234.59-1.04L234.59-1.04Q232.12-0.98 229.81-0.82L229.81-0.82L229.81-0.82Q227.50-0.67 225.54-0.47L225.54-0.47L225.54-0.47Q223.59-0.27 222.35 0ZM344.54 0L344.54 0L344.54 0Q344.80-1.11 345.00-2.69L345.00-2.69L345.00-2.69Q345.20-4.27 345.20-5.95L345.20-5.95L345.20-5.95Q345.20-7.51 344.98-9.00L344.98-9.00L344.98-9.00Q344.76-10.49 344.54-11.55L344.54-11.55L344.54-11.55Q346.54-11.55 348.05-11.86L348.05-11.86L348.05-11.86Q349.56-12.17 350.58-12.91L350.58-12.91L350.58-12.91Q351.60-13.64 352.11-14.91L352.11-14.91L352.11-14.91Q352.63-16.17 352.63-18.08L352.63-18.08L352.63-18.08Q352.63-21.82 352.43-24.48L352.43-24.48L352.43-24.48Q352.23-27.15 351.85-28.88L351.85-28.88L351.85-28.88Q351.47-30.61 350.89-31.53L350.89-31.53L350.89-31.53Q350.31-32.44 349.56-32.66L349.56-32.66L349.56-32.66Q350.36-32.93 350.94-33.61L350.94-33.61L350.94-33.61Q351.51-34.30 351.89-35.86L351.89-35.86L351.89-35.86Q352.27-37.41 352.45-40.01L352.45-40.01L352.45-40.01Q352.63-42.61 352.63-46.70L352.63-46.70L352.63-46.70Q352.63-48.48 352.05-49.59L352.05-49.59L352.05-49.59Q351.47-50.70 350.49-51.34L350.49-51.34L350.49-51.34Q349.51-51.99 348.20-52.21L348.20-52.21L348.20-52.21Q346.89-52.43 345.38-52.43L345.38-52.43L344.54-52.43L344.54-52.43Q344.76-53.50 344.98-54.90L344.98-54.90L344.98-54.90Q345.20-56.30 345.20-57.85L345.20-57.85L345.20-57.85Q345.20-59.50 345.00-61.19L345.00-61.19L345.00-61.19Q344.80-62.87 344.54-63.98L344.54-63.98L344.54-63.98Q345.38-63.67 347.20-63.41L347.20-63.41L347.20-63.41Q349.03-63.14 351.38-62.92L351.38-62.92L351.38-62.92Q353.74-62.70 356.38-62.56L356.38-62.56L356.38-62.56Q359.02-62.43 361.56-62.43L361.56-62.43L361.56-62.43Q364.13-62.43 367.00-62.56L367.00-62.56L367.00-62.56Q369.87-62.70 372.46-62.92L372.46-62.92L372.46-62.92Q375.06-63.14 377.06-63.41L377.06-63.41L377.06-63.41Q379.06-63.67 379.95-63.98L379.95-63.98L379.95-63.98Q379.69-62.87 379.49-61.19L379.49-61.19L379.49-61.19Q379.29-59.50 379.29-57.85L379.29-57.85L379.29-57.85Q379.29-56.30 379.51-54.90L379.51-54.90L379.51-54.90Q379.73-53.50 379.95-52.43L379.95-52.43L379.02-52.43L379.02-52.43Q377.33-52.43 375.77-52.21L375.77-52.21L375.77-52.21Q374.22-51.99 373.04-51.34L373.04-51.34L373.04-51.34Q371.86-50.70 371.15-49.59L371.15-49.59L371.15-49.59Q370.44-48.48 370.44-46.70L370.44-46.70L370.44-46.70Q370.44-42.61 370.62-40.01L370.62-40.01L370.62-40.01Q370.80-37.41 371.18-35.86L371.18-35.86L371.18-35.86Q371.55-34.30 372.13-33.61L372.13-33.61L372.13-33.61Q372.71-32.93 373.51-32.66L373.51-32.66L373.51-32.66Q372.75-32.44 372.18-31.53L372.18-31.53L372.18-31.53Q371.60-30.61 371.22-28.88L371.22-28.88L371.22-28.88Q370.84-27.15 370.64-24.48L370.64-24.48L370.64-24.48Q370.44-21.82 370.44-18.08L370.44-18.08L370.44-18.08Q370.44-15.77 370.62-14.26L370.62-14.26L370.62-14.26Q370.80-12.75 371.02-11.64L371.02-11.64L371.02-11.64Q372.89-10.71 375.09-10.33L375.09-10.33L375.09-10.33Q377.29-9.95 379.20-9.95L379.20-9.95L379.20-9.95Q382.00-9.95 383.86-10.22L383.86-10.22L383.86-10.22Q385.73-10.49 386.84-11.42L386.84-11.42L386.84-11.42Q387.95-12.35 388.39-14.15L388.39-14.15L388.39-14.15Q388.84-15.95 388.84-19.02L388.84-19.02L388.84-19.02Q388.84-21.82 388.57-23.66L388.57-23.66L388.57-23.66Q388.31-25.50 387.93-26.73L387.93-26.73L387.93-26.73Q387.55-27.95 387.19-28.73L387.19-28.73L387.19-28.73Q386.84-29.50 386.71-30.21L386.71-30.21L386.71-30.21Q387.55-29.90 388.99-29.68L388.99-29.68L388.99-29.68Q390.44-29.46 392.02-29.33L392.02-29.33L392.02-29.33Q393.59-29.19 395.10-29.15L395.10-29.15L395.10-29.15Q396.61-29.10 397.64-29.10L397.64-29.10L397.64-29.10Q398.75-29.10 400.01-29.17L400.01-29.17L400.01-29.17Q401.28-29.24 402.48-29.39L402.48-29.39L402.48-29.39Q403.68-29.55 404.70-29.75L404.70-29.75L404.70-29.75Q405.72-29.95 406.43-30.21L406.43-30.21L406.43-30.21Q406.21-29.55 405.59-27.68L405.59-27.68L405.59-27.68Q404.97-25.82 404.35-23.33L404.35-23.33L404.35-23.33Q403.72-20.84 403.23-18.00L403.23-18.00L403.23-18.00Q402.75-15.15 402.75-12.57L402.75-12.57L402.75-12.57Q402.79-10.84 402.81-9.04L402.81-9.04L402.81-9.04Q402.83-7.24 402.92-5.58L402.92-5.58L402.92-5.58Q403.01-3.91 403.30-2.47L403.30-2.47L403.30-2.47Q403.59-1.02 404.17 0L404.17 0L404.17 0Q403.32-0.18 401.30-0.33L401.30-0.33L401.30-0.33Q399.28-0.49 396.59-0.60L396.59-0.60L396.59-0.60Q393.90-0.71 390.84-0.82L390.84-0.82L390.84-0.82Q387.77-0.93 384.84-1.00L384.84-1.00L384.84-1.00Q381.91-1.07 379.40-1.09L379.40-1.09L379.40-1.09Q376.89-1.11 375.29-1.11L375.29-1.11L375.29-1.11Q373.69-1.11 371.04-1.09L371.04-1.09L371.04-1.09Q368.40-1.07 365.27-1.00L365.27-1.00L365.27-1.00Q362.13-0.93 358.85-0.82L358.85-0.82L358.85-0.82Q355.56-0.71 352.67-0.60L352.67-0.60L352.67-0.60Q349.78-0.49 347.60-0.33L347.60-0.33L347.60-0.33Q345.43-0.18 344.54 0ZM408.52 0L408.52 0L408.52 0Q408.79-1.11 408.92-2.73L408.92-2.73L408.92-2.73Q409.06-4.35 409.06-6.09L409.06-6.09L409.06-6.09Q409.06-7.69 408.94-9.09L408.94-9.09L408.94-9.09Q408.83-10.49 408.61-11.55L408.61-11.55L408.61-11.55Q410.88-11.64 412.48-12.37L412.48-12.37L412.48-12.37Q414.08-13.11 415.10-14.00L415.10-14.00L415.10-14.00Q416.17-15.64 417.28-17.68L417.28-17.68L417.28-17.68Q418.39-19.73 419.30-21.88L419.30-21.88L419.30-21.88Q420.21-24.04 420.79-26.19L420.79-26.19L420.79-26.19Q421.36-28.35 421.36-30.21L421.36-30.21L421.36-30.21Q421.36-30.97 421.14-31.73L421.14-31.73L421.14-31.73Q420.92-32.48 420.39-32.66L420.39-32.66L420.39-32.66Q421.72-33.01 423.05-34.61L423.05-34.61L423.05-34.61Q424.39-36.21 425.63-38.57L425.63-38.57L425.63-38.57Q426.87-40.92 427.94-43.81L427.94-43.81L427.94-43.81Q429.01-46.70 429.81-49.65L429.81-49.65L429.81-49.65Q430.61-52.61 431.05-55.41L431.05-55.41L431.05-55.41Q431.49-58.21 431.49-60.39L431.49-60.39L431.49-60.39Q431.49-61.14 431.41-61.85L431.41-61.85L431.41-61.85Q431.32-62.56 431.32-63.05L431.32-63.05L431.32-63.05Q431.32-63.27 431.34-63.45L431.34-63.45L431.34-63.45Q431.36-63.63 431.36-63.98L431.36-63.98L431.36-63.98Q432.38-63.58 433.92-63.30L433.92-63.30L433.92-63.30Q435.45-63.01 437.36-62.81L437.36-62.81L437.36-62.81Q439.27-62.61 441.45-62.52L441.45-62.52L441.45-62.52Q443.63-62.43 445.98-62.43L445.98-62.43L445.98-62.43Q448.02-62.43 450.16-62.52L450.16-62.52L450.16-62.52Q452.29-62.61 454.29-62.81L454.29-62.81L454.29-62.81Q456.29-63.01 458.02-63.30L458.02-63.30L458.02-63.30Q459.75-63.58 460.91-63.98L460.91-63.98L460.91-63.81L460.91-63.41L460.91-63.41Q460.91-62.92 460.80-62.18L460.80-62.18L460.80-62.18Q460.69-61.45 460.69-60.56L460.69-60.56L460.69-60.56Q460.69-58.52 461.07-55.76L461.07-55.76L461.07-55.76Q461.44-53.01 462.11-50.05L462.11-50.05L462.11-50.05Q462.78-47.10 463.73-44.19L463.73-44.19L463.73-44.19Q464.69-41.28 465.84-38.86L465.84-38.86L465.84-38.86Q467.00-36.44 468.33-34.77L468.33-34.77L468.33-34.77Q469.66-33.10 471.13-32.66L471.13-32.66L471.13-32.66Q470.51-32.44 470.26-31.79L470.26-31.79L470.26-31.79Q470.02-31.15 470.02-30.21L470.02-30.21L470.02-30.21Q470.02-28.35 470.57-26.19L470.57-26.19L470.57-26.19Q471.13-24.04 472.04-21.88L472.04-21.88L472.04-21.88Q472.95-19.73 474.04-17.73L474.04-17.73L474.04-17.73Q475.13-15.73 476.19-14.13L476.19-14.13L476.19-14.13Q476.86-13.73 477.79-13.29L477.79-13.29L477.79-13.29Q478.73-12.84 479.75-12.44L479.75-12.44L479.75-12.44Q480.77-12.04 481.79-11.80L481.79-11.80L481.79-11.80Q482.82-11.55 483.70-11.55L483.70-11.55L483.70-11.55Q483.48-10.49 483.37-9.09L483.37-9.09L483.37-9.09Q483.26-7.69 483.26-6.09L483.26-6.09L483.26-6.09Q483.26-4.35 483.39-2.73L483.39-2.73L483.39-2.73Q483.53-1.11 483.79 0L483.79 0L483.79 0Q482.19-0.18 480.10-0.38L480.10-0.38L480.10-0.38Q478.02-0.58 475.62-0.73L475.62-0.73L475.62-0.73Q473.22-0.89 470.64-1.00L470.64-1.00L470.64-1.00Q468.06-1.11 465.49-1.11L465.49-1.11L465.49-1.11Q460.78-1.11 456.53-0.82L456.53-0.82L456.53-0.82Q452.29-0.53 449.36 0L449.36 0L449.36 0Q449.49-0.76 449.60-2.38L449.60-2.38L449.60-2.38Q449.71-4.00 449.71-6.00L449.71-6.00L449.71-6.00Q449.71-6.84 449.67-7.71L449.67-7.71L449.67-7.71Q449.62-8.58 449.58-9.33L449.58-9.33L449.58-9.33Q449.53-10.09 449.47-10.69L449.47-10.69L449.47-10.69Q449.40-11.29 449.36-11.55L449.36-11.55L449.36-11.55Q450.16-11.55 451.05-11.62L451.05-11.62L451.05-11.62Q451.93-11.69 452.80-11.86L452.80-11.86L452.80-11.86Q453.67-12.04 454.47-12.35L454.47-12.35L454.47-12.35Q455.27-12.66 455.89-13.20L455.89-13.20L455.89-13.20Q455.80-14.97 455.31-16.24L455.31-16.24L455.31-16.24Q454.82-17.51 453.47-18.35L453.47-18.35L453.47-18.35Q452.11-19.20 449.69-19.60L449.69-19.60L449.69-19.60Q447.27-20.00 443.36-20.00L443.36-20.00L443.36-20.00Q439.85-20.00 437.52-19.73L437.52-19.73L437.52-19.73Q435.18-19.46 433.74-18.73L433.74-18.73L433.74-18.73Q432.29-18.00 431.61-16.68L431.61-16.68L431.61-16.68Q430.92-15.37 430.74-13.24L430.74-13.24L430.74-13.24Q431.41-12.71 432.34-12.40L432.34-12.40L432.34-12.40Q433.27-12.09 434.27-11.89L434.27-11.89L434.27-11.89Q435.27-11.69 436.27-11.62L436.27-11.62L436.27-11.62Q437.27-11.55 438.07-11.55L438.07-11.55L438.07-11.55Q437.98-11.29 437.92-10.71L437.92-10.71L437.92-10.71Q437.85-10.13 437.80-9.35L437.80-9.35L437.80-9.35Q437.76-8.58 437.74-7.69L437.74-7.69L437.74-7.69Q437.72-6.80 437.72-6.00L437.72-6.00L437.72-6.00Q437.72-4.00 437.83-2.38L437.83-2.38L437.83-2.38Q437.94-0.76 438.07 0L438.07 0L438.07 0Q434.69-0.62 431.23-0.87L431.23-0.87L431.23-0.87Q427.76-1.11 424.16-1.11L424.16-1.11L424.16-1.11Q419.99-1.11 416.05-0.87L416.05-0.87L416.05-0.87Q412.12-0.62 408.52 0ZM436.96-33.01L436.96-33.01L436.96-33.01Q436.96-31.73 437.25-30.88L437.25-30.88L437.25-30.88Q437.54-30.04 438.27-29.55L438.27-29.55L438.27-29.55Q439.00-29.06 440.27-28.86L440.27-28.86L440.27-28.86Q441.54-28.66 443.49-28.66L443.49-28.66L443.49-28.66Q445.45-28.66 446.71-28.86L446.71-28.86L446.71-28.86Q447.98-29.06 448.71-29.55L448.71-29.55L448.71-29.55Q449.45-30.04 449.73-30.88L449.73-30.88L449.73-30.88Q450.02-31.73 450.02-33.01L450.02-33.01L450.02-33.01Q450.02-34.57 449.22-36.84L449.22-36.84L449.22-36.84Q448.42-39.10 447.36-41.59L447.36-41.59L447.36-41.59Q446.29-44.08 445.18-46.57L445.18-46.57L445.18-46.57Q444.07-49.05 443.49-51.05L443.49-51.05L443.49-51.05Q442.83-49.05 441.71-46.57L441.71-46.57L441.71-46.57Q440.60-44.08 439.56-41.59L439.56-41.59L439.56-41.59Q438.52-39.10 437.74-36.84L437.74-36.84L437.74-36.84Q436.96-34.57 436.96-33.01ZM488.46 0L488.46 0L488.46 0Q488.73-1.11 488.93-2.69L488.93-2.69L488.93-2.69Q489.13-4.27 489.13-5.95L489.13-5.95L489.13-5.95Q489.13-7.51 488.90-9.00L488.90-9.00L488.90-9.00Q488.68-10.49 488.46-11.55L488.46-11.55L488.46-11.55Q490.46-11.55 491.97-11.86L491.97-11.86L491.97-11.86Q493.48-12.17 494.50-12.91L494.50-12.91L494.50-12.91Q495.52-13.64 496.03-14.91L496.03-14.91L496.03-14.91Q496.55-16.17 496.55-18.08L496.55-18.08L496.55-18.08Q496.55-21.82 496.35-24.48L496.35-24.48L496.35-24.48Q496.15-27.15 495.77-28.88L495.77-28.88L495.77-28.88Q495.39-30.61 494.81-31.53L494.81-31.53L494.81-31.53Q494.23-32.44 493.48-32.66L493.48-32.66L493.48-32.66Q494.28-32.93 494.86-33.50L494.86-33.50L494.86-33.50Q495.43-34.08 495.81-35.48L495.81-35.48L495.81-35.48Q496.19-36.88 496.37-39.35L496.37-39.35L496.37-39.35Q496.55-41.81 496.55-45.90L496.55-45.90L496.55-45.90Q496.55-47.81 496.03-49.08L496.03-49.08L496.03-49.08Q495.52-50.34 494.50-51.08L494.50-51.08L494.50-51.08Q493.48-51.81 491.97-52.12L491.97-52.12L491.97-52.12Q490.46-52.43 488.46-52.43L488.46-52.43L488.46-52.43Q488.68-53.50 488.90-54.99L488.90-54.99L488.90-54.99Q489.13-56.48 489.13-58.03L489.13-58.03L489.13-58.03Q489.13-59.72 488.93-61.30L488.93-61.30L488.93-61.30Q488.73-62.87 488.46-63.98L488.46-63.98L488.46-63.98Q489.04-63.76 490.72-63.54L490.72-63.54L490.72-63.54Q492.41-63.32 494.70-63.16L494.70-63.16L494.70-63.16Q496.99-63.01 499.66-62.87L499.66-62.87L499.66-62.87Q502.32-62.74 504.90-62.63L504.90-62.63L504.90-62.63Q507.48-62.52 509.72-62.47L509.72-62.47L509.72-62.47Q511.96-62.43 513.43-62.43L513.43-62.43L513.43-62.43Q517.12-62.43 520.65-62.50L520.65-62.50L520.65-62.50Q524.18-62.56 527.16-62.74L527.16-62.74L527.16-62.74Q530.14-62.92 532.36-63.23L532.36-63.23L532.36-63.23Q534.58-63.54 535.60-63.98L535.60-63.98L535.60-63.98Q535.65-63.05 536.31-62.01L536.31-62.01L536.31-62.01Q536.98-60.96 538.07-59.92L538.07-59.92L538.07-59.92Q539.16-58.87 540.49-57.90L540.49-57.90L540.49-57.90Q541.82-56.92 543.20-56.14L543.20-56.14L543.20-56.14Q544.58-55.36 545.87-54.90L545.87-54.90L545.87-54.90Q547.16-54.43 548.13-54.39L548.13-54.39L548.13-54.39Q547.82-53.81 547.58-52.72L547.58-52.72L547.58-52.72Q547.33-51.63 547.16-50.25L547.16-50.25L547.16-50.25Q546.98-48.88 546.89-47.41L546.89-47.41L546.89-47.41Q546.80-45.94 546.80-44.61L546.80-44.61L546.80-44.61Q546.80-41.77 547.09-39.30L547.09-39.30L547.09-39.30Q547.38-36.84 548.13-35.55L548.13-35.55L548.13-35.55Q546.27-35.19 544.40-34.13L544.40-34.13L544.40-34.13Q542.53-33.06 540.89-31.59L540.89-31.59L540.89-31.59Q543.29-30.17 546.09-29.26L546.09-29.26L546.09-29.26Q548.89-28.35 551.33-27.99L551.33-27.99L551.33-27.99Q550.98-27.42 550.71-26.48L550.71-26.48L550.71-26.48Q550.44-25.55 550.29-24.39L550.29-24.39L550.29-24.39Q550.13-23.24 550.07-21.95L550.07-21.95L550.07-21.95Q550.00-20.66 550.00-19.37L550.00-19.37L550.00-19.37Q550.00-18.04 550.07-16.55L550.07-16.55L550.07-16.55Q550.13-15.06 550.31-13.71L550.31-13.71L550.31-13.71Q550.49-12.35 550.73-11.24L550.73-11.24L550.73-11.24Q550.98-10.13 551.33-9.60L551.33-9.60L551.33-9.60Q550.09-9.55 548.47-9.11L548.47-9.11L548.47-9.11Q546.84-8.66 545.13-7.93L545.13-7.93L545.13-7.93Q543.42-7.20 541.76-6.27L541.76-6.27L541.76-6.27Q540.09-5.33 538.71-4.27L538.71-4.27L538.71-4.27Q537.34-3.20 536.40-2.11L536.40-2.11L536.40-2.11Q535.47-1.02 535.25 0L535.25 0L535.25 0Q534.71-0.27 532.63-0.47L532.63-0.47L532.63-0.47Q530.54-0.67 527.49-0.82L527.49-0.82L527.49-0.82Q524.45-0.98 520.78-1.04L520.78-1.04L520.78-1.04Q517.12-1.11 513.43-1.11L513.43-1.11L513.43-1.11Q512.01-1.11 509.70-1.07L509.70-1.07L509.70-1.07Q507.39-1.02 504.72-0.93L504.72-0.93L504.72-0.93Q502.06-0.84 499.32-0.76L499.32-0.76L499.32-0.76Q496.59-0.67 494.30-0.53L494.30-0.53L494.30-0.53Q492.01-0.40 490.41-0.27L490.41-0.27L490.41-0.27Q488.81-0.13 488.46 0ZM514.45-37.50L514.45-37.50L514.45-37.50Q515.07-37.28 515.72-37.12L515.72-37.12L515.72-37.12Q516.36-36.97 517.18-36.86L517.18-36.86L517.18-36.86Q518.01-36.75 519.07-36.70L519.07-36.70L519.07-36.70Q520.14-36.66 521.56-36.66L521.56-36.66L521.56-36.66Q523.78-36.66 525.23-37.32L525.23-37.32L525.23-37.32Q526.67-37.99 527.49-39.15L527.49-39.15L527.49-39.15Q528.32-40.30 528.65-41.88L528.65-41.88L528.65-41.88Q528.98-43.46 528.98-45.28L528.98-45.28L528.98-45.28Q528.98-46.83 528.80-48.28L528.80-48.28L528.80-48.28Q528.63-49.72 527.92-50.85L527.92-50.85L527.92-50.85Q527.20-51.99 525.83-52.65L525.83-52.65L525.83-52.65Q524.45-53.32 522.01-53.32L522.01-53.32L522.01-53.32Q520.01-53.32 518.01-53.05L518.01-53.05L518.01-53.05Q516.01-52.79 514.36-52.08L514.36-52.08L514.36-52.08Q514.19-50.83 514.12-49.34L514.12-49.34L514.12-49.34Q514.05-47.85 514.05-46.30L514.05-46.30L514.05-46.30Q514.05-43.94 514.16-41.66L514.16-41.66L514.16-41.66Q514.27-39.37 514.45-37.50ZM514.36-10.84L514.36-10.84L514.36-10.84Q516.50-10.26 518.78-10.02L518.78-10.02L518.78-10.02Q521.07-9.78 523.78-9.78L523.78-9.78L523.78-9.78Q526.32-9.78 527.98-10.51L527.98-10.51L527.98-10.51Q529.65-11.24 530.67-12.49L530.67-12.49L530.67-12.49Q531.69-13.73 532.11-15.42L532.11-15.42L532.11-15.42Q532.54-17.11 532.54-19.06L532.54-19.06L532.54-19.06Q532.54-20.79 532.29-22.39L532.29-22.39L532.29-22.39Q532.05-23.99 531.18-25.24L531.18-25.24L531.18-25.24Q530.31-26.48 528.67-27.24L528.67-27.24L528.67-27.24Q527.03-27.99 524.23-27.99L524.23-27.99L524.23-27.99Q520.54-27.99 518.27-27.70L518.27-27.70L518.27-27.70Q516.01-27.42 514.41-26.70L514.41-26.70L514.41-26.70Q514.19-25.19 514.10-23.37L514.10-23.37L514.10-23.37Q514.01-21.55 514.01-19.55L514.01-19.55L514.01-19.55Q514.01-17.24 514.12-15.00L514.12-15.00L514.12-15.00Q514.23-12.75 514.36-10.84Z" fill="#000000"></path></g></g><style>text {
  font-size: 64px;
  font-family: Arial Black;
  dominant-baseline: central;
  text-anchor: middle;
}</style></svg>